<svg width="132" height="44" viewBox="0 0 132 44" fill="none" xmlns="http://www.w3.org/2000/svg">
<g clip-path="url(#clip0_1_1321)">
<mask id="mask0_1_1321" style="mask-type:luminance" maskUnits="userSpaceOnUse" x="0" y="2" width="39" height="41">
<path d="M38.046 2H0V42.7197H38.046V2Z" fill="white"/>
</mask>
<g mask="url(#mask0_1_1321)">
<path fill-rule="evenodd" clip-rule="evenodd" d="M9.27297 24.9117C10.0171 25.0613 10.7867 25.14 11.5746 25.14V25.1373C17.7549 25.1373 22.8197 20.3004 23.1336 14.2375C29.1491 15.0359 33.8045 20.169 33.8045 26.3589C33.8045 33.1003 28.2826 38.5856 21.496 38.5856C14.7093 38.5856 9.1873 33.1029 9.1873 26.3589C9.1873 25.8693 9.2164 25.3864 9.27297 24.9117ZM5.44249 23.3901C2.17618 21.3551 0 17.7457 0 13.6399C0 7.29777 5.19248 2.14258 11.5746 2.14258C16.7416 2.14258 21.1287 5.52342 22.6121 10.175C31.0961 10.7467 37.8236 17.7866 37.8236 26.3589C37.8236 35.3038 30.4983 42.5776 21.496 42.5776C12.4936 42.5776 5.16836 35.3011 5.16836 26.3589C5.16836 25.3453 5.26248 24.353 5.44249 23.3901ZM6.74513 19.4077C5.08025 18.0299 4.01894 15.9558 4.01894 13.6399C4.01894 9.50141 7.40824 6.13471 11.5746 6.13471C14.5851 6.13471 17.19 7.89262 18.4035 10.4295C13.2458 11.4161 8.94353 14.8226 6.74513 19.4077ZM10.4059 21.0555C12.062 17.6504 15.2611 15.1191 19.0954 14.3631C18.7279 18.1635 15.4953 21.1451 11.5746 21.1451C11.1772 21.1451 10.7869 21.1145 10.4059 21.0555Z" fill="url(#paint0_linear_1_1321)"/>
<path fill-rule="evenodd" clip-rule="evenodd" d="M9.10958 2.40869C3.90763 3.53388 0 8.14413 0 13.6436C0 17.7475 2.17827 21.3564 5.44701 23.3897C5.70956 21.9924 6.14899 20.6564 6.74645 19.4083C5.08263 18.0297 4.02161 15.9564 4.02161 13.641L4.01894 13.6436C4.01894 10.3621 6.14995 7.56577 9.10958 6.54845V2.40869Z" fill="url(#paint1_linear_1_1321)"/>
<path d="M19.0997 14.3543C18.7328 18.1549 15.4989 21.1357 11.579 21.1357C11.1798 21.1357 10.7887 21.1037 10.4082 21.0452C9.82945 22.2349 9.44098 23.5337 9.27753 24.8989C10.0224 25.0481 10.7913 25.1278 11.579 25.1278C17.7574 25.1278 22.8214 20.2946 23.1376 14.2319C22.6017 14.1601 22.0551 14.1201 21.4978 14.1201C20.6779 14.1201 19.8742 14.2027 19.0997 14.3543Z" fill="url(#paint2_linear_1_1321)"/>
<path d="M19.0517 14.4035C19.0758 14.164 19.0865 13.9245 19.0865 13.6797C19.0865 12.5326 18.8266 11.4468 18.3605 10.4727C13.2027 11.4574 8.89988 14.8613 6.7002 19.447C7.72636 20.296 8.98294 20.8815 10.3602 21.0944C12.0159 17.6905 15.2176 15.1594 19.0517 14.4035Z" fill="url(#paint3_linear_1_1321)"/>
<mask id="mask1_1_1321" style="mask-type:luminance" maskUnits="userSpaceOnUse" x="22" y="10" width="16" height="14">
<path d="M37.7781 10.1177H22.506V23.4248H37.7781V10.1177Z" fill="white"/>
</mask>
<g mask="url(#mask1_1_1321)">
<path fill-rule="evenodd" clip-rule="evenodd" d="M22.506 42.4814V38.4782C28.7978 37.942 33.7537 32.6828 33.7537 26.2964C33.7537 20.106 29.0998 14.9775 23.0846 14.1791C23.0953 13.9794 23.1006 13.7798 23.1006 13.5775C23.1006 12.3719 22.9131 11.2089 22.5649 10.1177C31.0476 10.6925 37.7724 17.3541 37.7724 26.2964C37.7724 34.8849 31.016 41.9363 22.506 42.4814Z" fill="url(#paint4_linear_1_1321)"/>
</g>
</g>
<mask id="mask2_1_1321" style="mask-type:luminance" maskUnits="userSpaceOnUse" x="43" y="18" width="90" height="17">
<path d="M132 18.8789H43.9365V34.2323H132V18.8789Z" fill="white"/>
</mask>
<g mask="url(#mask2_1_1321)">
<path d="M53.6801 23.772C53.5666 23.404 53.4102 23.0746 53.2109 22.7838C53.0162 22.4885 52.7802 22.2363 52.504 22.0273C52.2321 21.8183 51.9192 21.6616 51.5658 21.557C51.212 21.448 50.8269 21.3935 50.4098 21.3935C49.662 21.3935 48.9958 21.582 48.4113 21.9592C47.8266 22.3362 47.3666 22.8906 47.0313 23.6221C46.7003 24.349 46.535 25.235 46.535 26.28C46.535 27.3341 46.7003 28.2269 47.0313 28.9584C47.3619 29.6899 47.822 30.2465 48.4113 30.6281C49.0004 31.0052 49.6848 31.1938 50.4643 31.1938C51.1715 31.1938 51.7833 31.0575 52.3001 30.7849C52.8211 30.5123 53.2224 30.1261 53.5032 29.6263C53.7844 29.1219 53.9246 28.5313 53.9246 27.8543L54.4959 27.9429H50.7161V25.9665H56.3653V27.643C56.3653 28.838 56.1116 29.8717 55.604 30.744C55.0965 31.6163 54.3985 32.2888 53.5102 32.7613C52.6218 33.2292 51.6021 33.4633 50.4507 33.4633C49.168 33.4633 48.0417 33.1748 47.0719 32.5978C46.1066 32.0162 45.3519 31.1915 44.8081 30.1238C44.2688 29.0515 43.9989 27.7794 43.9989 26.3073C43.9989 25.1805 44.1576 24.1741 44.4751 23.2881C44.7968 22.4021 45.2453 21.6502 45.8212 21.0323C46.3967 20.4098 47.0719 19.9373 47.847 19.6147C48.6219 19.2876 49.465 19.124 50.3758 19.124C51.1464 19.124 51.8648 19.2376 52.5311 19.4648C53.1973 19.6874 53.7887 20.0055 54.3055 20.4189C54.8265 20.8324 55.2549 21.3231 55.5905 21.891C55.9258 22.4589 56.1455 23.0859 56.2498 23.772H53.6801ZM63.3184 33.4769C62.2717 33.4769 61.3675 33.2588 60.6058 32.8226C59.8491 32.3819 59.2667 31.7595 58.8588 30.9552C58.4509 30.1465 58.2467 29.1947 58.2467 28.0997C58.2467 27.0229 58.4509 26.0778 58.8588 25.2645C59.271 24.4467 59.8468 23.8106 60.5854 23.3563C61.3242 22.8974 62.1921 22.6679 63.1894 22.6679C63.8329 22.6679 64.4401 22.7724 65.0113 22.9814C65.5868 23.1859 66.0944 23.5039 66.5339 23.9356C66.9781 24.3672 67.3273 24.9169 67.581 25.5849C67.8348 26.2482 67.9619 27.0388 67.9619 27.9566V28.7131H59.4026V27.0501H65.6027C65.5981 26.5776 65.4961 26.1573 65.2968 25.7893C65.0975 25.4168 64.8186 25.1237 64.4606 24.9101C64.1071 24.6966 63.6946 24.5898 63.2234 24.5898C62.7201 24.5898 62.2783 24.7125 61.8974 24.9579C61.517 25.1987 61.22 25.5167 61.0071 25.912C60.7985 26.3027 60.6919 26.7321 60.6873 27.2001V28.6517C60.6873 29.2605 60.7985 29.783 61.0206 30.2192C61.2427 30.6509 61.5533 30.9825 61.9519 31.2142C62.3509 31.4415 62.8175 31.555 63.3524 31.555C63.7105 31.555 64.0345 31.505 64.3246 31.4051C64.6147 31.3006 64.8661 31.1484 65.0793 30.9484C65.2922 30.7485 65.4532 30.5009 65.5621 30.2056L67.8599 30.4646C67.7147 31.0734 67.4381 31.605 67.0303 32.0593C66.627 32.5091 66.1102 32.859 65.4803 33.1088C64.8503 33.3542 64.1299 33.4769 63.3184 33.4769ZM74.6668 33.4769C73.6197 33.4769 72.7155 33.2588 71.9542 32.8226C71.1972 32.3819 70.6147 31.7595 70.2068 30.9552C69.799 30.1465 69.595 29.1947 69.595 28.0997C69.595 27.0229 69.799 26.0778 70.2068 25.2645C70.6193 24.4467 71.1949 23.8106 71.9337 23.3563C72.6726 22.8974 73.5405 22.6679 74.5374 22.6679C75.1809 22.6679 75.7885 22.7724 76.3594 22.9814C76.9352 23.1859 77.4427 23.5039 77.8823 23.9356C78.3265 24.3672 78.6756 24.9169 78.9294 25.5849C79.1832 26.2482 79.3099 27.0388 79.3099 27.9566V28.7131H70.7507V27.0501H76.9511C76.9464 26.5776 76.8445 26.1573 76.6451 25.7893C76.4455 25.4168 76.167 25.1237 75.8089 24.9101C75.4552 24.6966 75.043 24.5898 74.5714 24.5898C74.0685 24.5898 73.6266 24.7125 73.2458 24.9579C72.865 25.1987 72.5683 25.5167 72.3551 25.912C72.1466 26.3027 72.0403 26.7321 72.0357 27.2001V28.6517C72.0357 29.2605 72.1466 29.783 72.3687 30.2192C72.5908 30.6509 72.9013 30.9825 73.3003 31.2142C73.6989 31.4415 74.1659 31.555 74.7008 31.555C75.0588 31.555 75.3829 31.505 75.673 31.4051C75.963 31.3006 76.2145 31.1484 76.4273 30.9484C76.6405 30.7485 76.8012 30.5009 76.9101 30.2056L79.2079 30.4646C79.063 31.0734 78.7865 31.605 78.3786 32.0593C77.975 32.5091 77.4586 32.859 76.8286 33.1088C76.1987 33.3542 75.4779 33.4769 74.6668 33.4769ZM81.5008 33.2724V19.3148H86.8306C87.8368 19.3148 88.673 19.4739 89.3392 19.7919C90.0101 20.1054 90.5108 20.5348 90.8417 21.08C91.1774 21.6252 91.3447 22.2431 91.3447 22.9337C91.3447 23.5017 91.2361 23.9878 91.0186 24.3922C90.8011 24.792 90.5088 25.1169 90.1415 25.3668C89.7745 25.6167 89.3643 25.7961 88.9109 25.9052V26.0415C89.4049 26.0687 89.8788 26.2209 90.3319 26.4981C90.7896 26.7707 91.1635 27.1569 91.4536 27.6567C91.7436 28.1565 91.8888 28.7607 91.8888 29.4695C91.8888 30.192 91.7143 30.8417 91.3655 31.4187C91.0163 31.9912 90.4906 32.4432 89.7881 32.7749C89.0855 33.1066 88.2017 33.2724 87.1365 33.2724H81.5008ZM84.0229 31.1597H86.7356C87.651 31.1597 88.3106 30.9848 88.7139 30.6349C89.1218 30.2806 89.3257 29.8262 89.3257 29.2719C89.3257 28.8584 89.2238 28.4858 89.0198 28.1542C88.8159 27.818 88.5258 27.5545 88.1496 27.3636C87.7734 27.1683 87.3246 27.0706 86.8035 27.0706H84.0229V31.1597ZM84.0229 25.2509H86.5181C86.953 25.2509 87.3451 25.1714 87.6942 25.0124C88.043 24.8488 88.3172 24.6193 88.5166 24.324C88.7208 24.0242 88.8228 23.6698 88.8228 23.2609C88.8228 22.7202 88.6324 22.2749 88.2516 21.9251C87.8754 21.5752 87.3157 21.4003 86.5722 21.4003H84.0229V25.2509ZM96.4352 19.3148V33.2724H93.9741V19.3148H96.4352ZM103.521 33.4769C102.501 33.4769 101.617 33.252 100.869 32.8022C100.122 32.3524 99.5415 31.7231 99.129 30.9144C98.7212 30.1056 98.5172 29.1606 98.5172 28.0792C98.5172 26.9979 98.7212 26.0506 99.129 25.2373C99.5415 24.424 100.122 23.7924 100.869 23.3426C101.617 22.8928 102.501 22.6679 103.521 22.6679C104.541 22.6679 105.424 22.8928 106.172 23.3426C106.92 23.7924 107.498 24.424 107.906 25.2373C108.318 26.0506 108.524 26.9979 108.524 28.0792C108.524 29.1606 108.318 30.1056 107.906 30.9144C107.498 31.7231 106.92 32.3524 106.172 32.8022C105.424 33.252 104.541 33.4769 103.521 33.4769ZM103.535 31.5005C104.087 31.5005 104.55 31.3483 104.921 31.0439C105.293 30.7349 105.569 30.3214 105.751 29.8034C105.937 29.2855 106.029 28.7085 106.029 28.0724C106.029 27.4318 105.937 26.8525 105.751 26.3345C105.569 25.812 105.293 25.3963 104.921 25.0874C104.55 24.7784 104.087 24.6239 103.535 24.6239C102.968 24.6239 102.496 24.7784 102.12 25.0874C101.749 25.3963 101.47 25.812 101.284 26.3345C101.103 26.8525 101.012 27.4318 101.012 28.0724C101.012 28.7085 101.103 29.2855 101.284 29.8034C101.47 30.3214 101.749 30.7349 102.12 31.0439C102.496 31.3483 102.968 31.5005 103.535 31.5005ZM115.168 33.4769C114.126 33.4769 113.231 33.2475 112.483 32.7885C111.74 32.3296 111.166 31.6958 110.763 30.8871C110.364 30.0739 110.165 29.1379 110.165 28.0792C110.165 27.016 110.368 26.0778 110.776 25.2645C111.184 24.4467 111.76 23.8106 112.503 23.3563C113.251 22.8974 114.135 22.6679 115.154 22.6679C116.002 22.6679 116.752 22.8247 117.405 23.1382C118.062 23.4472 118.586 23.8856 118.975 24.4535C119.365 25.0169 119.587 25.6757 119.642 26.43H117.289C117.194 25.9256 116.968 25.5053 116.609 25.1691C116.256 24.8284 115.782 24.658 115.188 24.658C114.686 24.658 114.244 24.7943 113.863 25.0669C113.482 25.335 113.185 25.7212 112.972 26.2255C112.764 26.7298 112.659 27.3341 112.659 28.0383C112.659 28.7516 112.764 29.365 112.972 29.8785C113.181 30.3874 113.473 30.7803 113.849 31.0575C114.23 31.3301 114.676 31.4664 115.188 31.4664C115.551 31.4664 115.875 31.3983 116.161 31.2619C116.451 31.121 116.693 30.9189 116.888 30.6554C117.083 30.3919 117.217 30.0715 117.289 29.6945H119.642C119.582 30.435 119.365 31.0916 118.989 31.6641C118.613 32.232 118.1 32.6772 117.452 32.9998C116.804 33.3178 116.043 33.4769 115.168 33.4769ZM123.906 29.9875L123.899 27.0092H124.293L128.046 22.8042H130.922L126.306 27.9566H125.796L123.906 29.9875ZM121.662 33.2724V19.3148H124.124V33.2724H121.662ZM128.216 33.2724L124.817 28.5086L126.475 26.7707L131.16 33.2724H128.216Z" fill="white"/>
</g>
</g>
<defs>
<linearGradient id="paint0_linear_1_1321" x1="4.01894" y1="4.40479" x2="30.986" y2="39.5773" gradientUnits="userSpaceOnUse">
<stop stop-color="#00D9FF"/>
<stop offset="1" stop-color="#E14AFF"/>
</linearGradient>
<linearGradient id="paint1_linear_1_1321" x1="4.01894" y1="5.20691" x2="11.2229" y2="23.4229" gradientUnits="userSpaceOnUse">
<stop offset="0.325" stop-color="#004096" stop-opacity="0"/>
<stop offset="1" stop-color="#163D73" stop-opacity="0.8"/>
</linearGradient>
<linearGradient id="paint2_linear_1_1321" x1="20.2286" y1="20.0859" x2="9.9266" y2="22.9947" gradientUnits="userSpaceOnUse">
<stop stop-color="#004096" stop-opacity="0"/>
<stop offset="0.685" stop-color="#163D73" stop-opacity="0.8"/>
</linearGradient>
<linearGradient id="paint3_linear_1_1321" x1="14.4429" y1="14.2892" x2="19.0697" y2="11.4477" gradientUnits="userSpaceOnUse">
<stop stop-color="#004096" stop-opacity="0"/>
<stop offset="1" stop-color="#163D73" stop-opacity="0.8"/>
</linearGradient>
<linearGradient id="paint4_linear_1_1321" x1="30.7507" y1="15.4532" x2="23.0808" y2="12.0827" gradientUnits="userSpaceOnUse">
<stop stop-color="#004096" stop-opacity="0"/>
<stop offset="1" stop-color="#163D73" stop-opacity="0.8"/>
</linearGradient>
<clipPath id="clip0_1_1321">
<rect width="132" height="44" fill="white"/>
</clipPath>
</defs>
</svg>
