<svg width="449" height="76" viewBox="0 0 449 76" fill="none" xmlns="http://www.w3.org/2000/svg">
    <path d="M51.5721 24.2486C50.8855 22.0942 49.9622 20.1648 48.8022 18.4602C47.6658 16.732 46.3046 15.2642 44.7184 14.0568C43.1322 12.8258 41.3211 11.8906 39.2852 11.2514C37.2728 10.6122 35.0593 10.2926 32.6445 10.2926C28.5489 10.2926 24.8557 11.3461 21.565 13.4531C18.2743 15.5601 15.6701 18.6496 13.7525 22.7216C11.8585 26.7699 10.9116 31.7296 10.9116 37.6009C10.9116 43.4957 11.8704 48.4792 13.788 52.5511C15.7056 56.6231 18.3335 59.7126 21.6715 61.8196C25.0096 63.9266 28.8093 64.9801 33.0707 64.9801C37.0243 64.9801 40.4689 64.1752 43.4045 62.5653C46.3638 60.9555 48.6483 58.6828 50.2582 55.7472C51.8917 52.7879 52.7085 49.3078 52.7085 45.3068L55.5494 45.8395H34.7397V36.7841H63.3263V45.0582C63.3263 51.1662 62.0243 56.4692 59.4201 60.9673C56.8396 65.4418 53.2648 68.8982 48.6957 71.3366C44.1502 73.7751 38.9419 74.9943 33.0707 74.9943C26.4892 74.9943 20.7127 73.4792 15.7411 70.4489C10.7932 67.4186 6.9343 63.1217 4.16442 57.5582C1.39453 51.9711 0.00958827 45.3423 0.00958827 37.6719C0.00958827 31.8717 0.814512 26.6634 2.42436 22.0469C4.03421 17.4304 6.2951 13.5123 9.20703 10.2926C12.1426 7.04924 15.5872 4.57528 19.5408 2.87074C23.5181 1.14252 27.8623 0.278406 32.5735 0.278406C36.5034 0.278406 40.1611 0.858425 43.5465 2.01846C46.9556 3.1785 49.9859 4.82386 52.6374 6.95454C55.3126 9.08523 57.5262 11.6184 59.2781 14.554C61.03 17.4659 62.2137 20.6974 62.8292 24.2486H51.5721ZM99.9119 75.1009C94.5379 75.1009 89.9096 73.9527 86.027 71.6562C82.1681 69.3362 79.1851 66.081 77.0781 61.8906C74.9948 57.6766 73.9531 52.7405 73.9531 47.0824C73.9531 41.4953 74.9948 36.571 77.0781 32.3097C79.1851 28.0483 82.1207 24.7221 85.8849 22.331C89.6728 19.9399 94.0999 18.7443 99.1662 18.7443C102.244 18.7443 105.227 19.2533 108.115 20.2713C111.003 21.2893 113.596 22.8873 115.892 25.0653C118.188 27.2434 120 30.0724 121.325 33.5526C122.651 37.009 123.314 41.2112 123.314 46.1591V49.9233H79.9545V41.9688H112.909C112.909 39.1752 112.341 36.7012 111.205 34.5469C110.068 32.3688 108.47 30.6525 106.411 29.3977C104.375 28.143 101.983 27.5156 99.2372 27.5156C96.2543 27.5156 93.6501 28.2495 91.4247 29.7173C89.223 31.1615 87.5185 33.0554 86.3111 35.3991C85.1274 37.7192 84.5355 40.2405 84.5355 42.9631V49.1776C84.5355 52.8234 85.1747 55.9247 86.4531 58.4815C87.7552 61.0384 89.5663 62.9915 91.8864 64.3409C94.2064 65.6667 96.9171 66.3295 100.018 66.3295C102.031 66.3295 103.866 66.0455 105.523 65.4773C107.18 64.8854 108.612 64.0095 109.82 62.8494C111.027 61.6894 111.95 60.2571 112.589 58.5526L122.639 60.3636C121.834 63.3229 120.39 65.9152 118.307 68.1406C116.247 70.3423 113.655 72.0587 110.53 73.2898C107.429 74.4972 103.889 75.1009 99.9119 75.1009ZM158.603 75.1009C153.229 75.1009 148.601 73.9527 144.718 71.6562C140.859 69.3362 137.877 66.081 135.77 61.8906C133.686 57.6766 132.645 52.7405 132.645 47.0824C132.645 41.4953 133.686 36.571 135.77 32.3097C137.877 28.0483 140.812 24.7221 144.576 22.331C148.364 19.9399 152.791 18.7443 157.858 18.7443C160.935 18.7443 163.918 19.2533 166.806 20.2713C169.695 21.2893 172.287 22.8873 174.583 25.0653C176.88 27.2434 178.691 30.0724 180.017 33.5526C181.342 37.009 182.005 41.2112 182.005 46.1591V49.9233H138.646V41.9688H171.6C171.6 39.1752 171.032 36.7012 169.896 34.5469C168.76 32.3688 167.162 30.6525 165.102 29.3977C163.066 28.143 160.675 27.5156 157.929 27.5156C154.946 27.5156 152.342 28.2495 150.116 29.7173C147.914 31.1615 146.21 33.0554 145.002 35.3991C143.819 37.7192 143.227 40.2405 143.227 42.9631V49.1776C143.227 52.8234 143.866 55.9247 145.145 58.4815C146.447 61.0384 148.258 62.9915 150.578 64.3409C152.898 65.6667 155.609 66.3295 158.71 66.3295C160.722 66.3295 162.557 66.0455 164.214 65.4773C165.871 64.8854 167.304 64.0095 168.511 62.8494C169.718 61.6894 170.642 60.2571 171.281 58.5526L181.331 60.3636C180.526 63.3229 179.082 65.9152 176.998 68.1406C174.939 70.3423 172.346 72.0587 169.221 73.2898C166.12 74.4972 162.581 75.1009 158.603 75.1009ZM194.638 74V1.27273H221.272C226.433 1.27273 230.706 2.125 234.092 3.82954C237.477 5.51041 240.01 7.79498 241.691 10.6832C243.372 13.5478 244.212 16.7794 244.212 20.3778C244.212 23.4081 243.656 25.965 242.543 28.0483C241.431 30.108 239.939 31.7651 238.069 33.0199C236.222 34.2509 234.186 35.1506 231.961 35.7188V36.429C234.376 36.5473 236.731 37.3286 239.028 38.7727C241.348 40.1932 243.265 42.2173 244.781 44.8452C246.296 47.473 247.053 50.669 247.053 54.4332C247.053 58.1501 246.177 61.4882 244.425 64.4474C242.697 67.383 240.022 69.715 236.4 71.4432C232.778 73.1477 228.149 74 222.515 74H194.638ZM205.612 64.5895H221.45C226.705 64.5895 230.469 63.5715 232.742 61.5355C235.015 59.4995 236.151 56.9545 236.151 53.9006C236.151 51.6042 235.571 49.4972 234.411 47.5795C233.251 45.6619 231.594 44.1349 229.44 42.9986C227.309 41.8622 224.776 41.294 221.84 41.294H205.612V64.5895ZM205.612 32.7358H220.313C222.775 32.7358 224.989 32.2623 226.954 31.3153C228.942 30.3684 230.517 29.0426 231.677 27.3381C232.861 25.6098 233.452 23.5739 233.452 21.2301C233.452 18.2235 232.399 15.7022 230.292 13.6662C228.185 11.6302 224.953 10.6122 220.597 10.6122H205.612V32.7358ZM269.834 1.27273V74H259.216V1.27273H269.834ZM307.094 75.1009C301.98 75.1009 297.518 73.929 293.706 71.5852C289.895 69.2415 286.935 65.9626 284.828 61.7486C282.721 57.5346 281.668 52.6103 281.668 46.9759C281.668 41.3177 282.721 36.3698 284.828 32.1321C286.935 27.8944 289.895 24.6037 293.706 22.2599C297.518 19.9162 301.98 18.7443 307.094 18.7443C312.208 18.7443 316.67 19.9162 320.482 22.2599C324.293 24.6037 327.253 27.8944 329.36 32.1321C331.467 36.3698 332.52 41.3177 332.52 46.9759C332.52 52.6103 331.467 57.5346 329.36 61.7486C327.253 65.9626 324.293 69.2415 320.482 71.5852C316.67 73.929 312.208 75.1009 307.094 75.1009ZM307.13 66.1875C310.444 66.1875 313.19 65.3116 315.368 63.5597C317.546 61.8078 319.156 59.4759 320.198 56.5639C321.263 53.652 321.796 50.4441 321.796 46.9403C321.796 43.4602 321.263 40.2642 320.198 37.3523C319.156 34.4167 317.546 32.0611 315.368 30.2855C313.19 28.5099 310.444 27.6222 307.13 27.6222C303.792 27.6222 301.022 28.5099 298.82 30.2855C296.642 32.0611 295.02 34.4167 293.955 37.3523C292.913 40.2642 292.392 43.4602 292.392 46.9403C292.392 50.4441 292.913 53.652 293.955 56.5639C295.02 59.4759 296.642 61.8078 298.82 63.5597C301.022 65.3116 303.792 66.1875 307.13 66.1875ZM367.348 75.1009C362.069 75.1009 357.523 73.9053 353.712 71.5142C349.924 69.0994 347.012 65.7732 344.976 61.5355C342.94 57.2978 341.922 52.4446 341.922 46.9759C341.922 41.4361 342.964 36.5473 345.047 32.3097C347.13 28.0483 350.066 24.7221 353.854 22.331C357.642 19.9399 362.104 18.7443 367.241 18.7443C371.384 18.7443 375.078 19.5137 378.321 21.0526C381.564 22.5677 384.18 24.6984 386.169 27.4446C388.181 30.1908 389.377 33.3987 389.756 37.0682H379.422C378.854 34.5114 377.552 32.3097 375.516 30.4631C373.503 28.6165 370.804 27.6932 367.419 27.6932C364.46 27.6932 361.867 28.4744 359.642 30.0369C357.44 31.5758 355.724 33.7775 354.493 36.642C353.262 39.483 352.646 42.8447 352.646 46.7273C352.646 50.7045 353.25 54.1373 354.457 57.0256C355.665 59.9138 357.369 62.151 359.571 63.7372C361.796 65.3234 364.412 66.1165 367.419 66.1165C369.431 66.1165 371.254 65.7495 372.888 65.0156C374.545 64.258 375.93 63.1809 377.043 61.7841C378.179 60.3873 378.972 58.7064 379.422 56.7415H389.756C389.377 60.2689 388.229 63.4176 386.311 66.1875C384.393 68.9574 381.825 71.1354 378.605 72.7216C375.409 74.3078 371.657 75.1009 367.348 75.1009ZM410.876 55.4986L410.805 42.5369H412.652L434.385 19.4545H447.098L422.311 45.733H420.642L410.876 55.4986ZM401.11 74V1.27273H411.728V74H401.11ZM435.556 74L416.025 48.0767L423.341 40.6548L448.589 74H435.556Z" fill="url(#paint0_linear_1_1340)"/>
    <defs>
        <linearGradient id="paint0_linear_1_1340" x1="3.2018" y1="-4.47958" x2="454.956" y2="27.0986" gradientUnits="userSpaceOnUse">
            <stop stop-color="#E14AFF"/>
            <stop offset="1" stop-color="#00D9FF"/>
        </linearGradient>
    </defs>
</svg>
