<svg width="152" height="152" viewBox="0 0 152 152" fill="none" xmlns="http://www.w3.org/2000/svg">
<g filter="url(#filter0_bi_1_1383)">
<path d="M51.1655 65.0505C50.9525 64.6629 50.6417 64.338 50.2639 64.1081L29.8327 51.622C29.4319 51.3775 28.9715 51.248 28.5021 51.248C28.0326 51.248 27.5722 51.3775 27.1715 51.622L6.74022 64.1081C6.36247 64.338 6.05162 64.6629 5.83869 65.0505L28.5021 78.9028L51.1655 65.0505Z" fill="url(#paint0_linear_1_1383)"/>
<path d="M5.83869 65.0505C5.62804 65.4294 5.51487 65.8577 5.51447 66.2912V88.9648C5.51471 89.4023 5.62733 89.8324 5.84154 90.2138C6.05575 90.5953 6.36436 90.9153 6.73779 91.1433L27.1691 103.629C27.5696 103.874 28.03 104.004 28.4996 104.005L28.5021 78.9028L5.83869 65.0505Z" fill="url(#paint1_linear_1_1383)"/>
<path d="M51.1655 65.0505C51.3761 65.4294 51.4844 65.8577 51.4848 66.2912V88.9648C51.4846 89.4023 51.3719 89.8324 51.1577 90.2138C50.9435 90.5953 50.6349 90.9153 50.2615 91.1433L29.8302 103.629C29.4296 103.874 28.9692 104.004 28.4996 104.005L28.5021 78.9028L51.1655 65.0505Z" fill="url(#paint2_linear_1_1383)"/>
</g>
<g filter="url(#filter1_bi_1_1383)">
<path d="M51.1682 65.0505C50.9553 64.6629 50.6445 64.338 50.2667 64.1081L29.8354 51.622C29.4347 51.3775 28.9743 51.248 28.5049 51.248C28.0354 51.248 27.575 51.3775 27.1743 51.622L6.743 64.1081C6.36525 64.338 6.0544 64.6629 5.84147 65.0505L28.5049 78.9028L51.1682 65.0505Z" fill="url(#paint3_linear_1_1383)"/>
<path d="M5.84147 65.0505C5.63082 65.4294 5.51764 65.8577 5.51724 66.2912V88.9648C5.51749 89.4023 5.63011 89.8324 5.84432 90.2138C6.05853 90.5953 6.36714 90.9153 6.74056 91.1433L27.1718 103.629C27.5724 103.874 28.0328 104.004 28.5024 104.005L28.5049 78.9028L5.84147 65.0505Z" fill="url(#paint4_linear_1_1383)"/>
<path d="M51.1682 65.0505C51.3789 65.4294 51.4872 65.8577 51.4876 66.2912V88.9648C51.4874 89.4023 51.3747 89.8324 51.1605 90.2138C50.9463 90.5953 50.6377 90.9153 50.2643 91.1433L29.833 103.629C29.4324 103.874 28.972 104.004 28.5024 104.005L28.5049 78.9028L51.1682 65.0505Z" fill="url(#paint5_linear_1_1383)"/>
</g>
<g filter="url(#filter2_bi_1_1383)">
<path d="M90.3166 49.8462C90.1821 49.6014 89.9858 49.3962 89.7472 49.251L76.8432 41.3651C76.5901 41.2106 76.2994 41.1289 76.0029 41.1289C75.7064 41.1289 75.4156 41.2106 75.1625 41.3651L62.2585 49.251C62.02 49.3962 61.8236 49.6014 61.6891 49.8462L76.0029 58.5951L90.3166 49.8462Z" fill="url(#paint6_linear_1_1383)"/>
<path d="M61.6891 49.8462C61.5561 50.0855 61.4846 50.3561 61.4844 50.6299V64.95C61.4845 65.2263 61.5557 65.4979 61.691 65.7389C61.8262 65.9798 62.0212 66.1819 62.257 66.3259L75.161 74.2118C75.414 74.3666 75.7047 74.4486 76.0013 74.4489L76.0029 58.5951L61.6891 49.8462Z" fill="url(#paint7_linear_1_1383)"/>
<path d="M90.3166 49.8462C90.4496 50.0855 90.518 50.3561 90.5183 50.6299V64.95C90.5181 65.2263 90.447 65.4979 90.3117 65.7389C90.1764 65.9798 89.9815 66.1819 89.7457 66.3259L76.8417 74.2118C76.5887 74.3666 76.2979 74.4486 76.0013 74.4489L76.0029 58.5951L90.3166 49.8462Z" fill="url(#paint8_linear_1_1383)"/>
</g>
<g filter="url(#filter3_bi_1_1383)">
<path d="M120.316 69.0835C120.182 68.8388 119.986 68.6335 119.747 68.4883L106.843 60.6024C106.59 60.4479 106.299 60.3662 106.003 60.3662C105.706 60.3662 105.415 60.4479 105.162 60.6024L92.2584 68.4883C92.0198 68.6335 108.822 68.8388 108.688 69.0835L123.002 77.8324L120.316 69.0835Z" fill="url(#paint9_linear_1_1383)"/>
<path d="M108.688 69.0835C108.555 69.3228 108.483 69.5934 108.483 69.8672V84.1873C108.483 84.4636 108.554 84.7353 108.69 84.9762C108.825 85.2171 109.02 85.4192 109.256 85.5632L122.16 93.4491C122.413 93.6039 122.703 93.6859 123 93.6862L123.002 77.8324L108.688 69.0835Z" fill="url(#paint10_linear_1_1383)"/>
<path d="M120.316 69.0835C120.449 69.3228 120.518 69.5934 120.518 69.8672V84.1873C120.518 84.4636 120.447 84.7353 120.312 84.9762C120.176 85.2171 119.981 85.4192 119.746 85.5632L106.842 93.4491C106.589 93.6039 123.297 93.6859 123 93.6862L123.002 77.8324L120.316 69.0835Z" fill="url(#paint11_linear_1_1383)"/>
</g>
<g filter="url(#filter4_bi_1_1383)">
<path d="M90.3156 91.148C90.1811 90.9032 89.9848 90.698 89.7462 90.5528L76.8423 82.6669C76.5892 82.5124 76.2984 82.4307 76.0019 82.4307C75.7054 82.4307 75.4146 82.5124 75.1615 82.6669L62.2576 90.5528C62.019 90.698 61.8227 90.9032 61.6882 91.148L76.0019 99.8968L90.3156 91.148Z" fill="url(#paint12_linear_1_1383)"/>
<path d="M61.6882 91.148C61.5551 91.3873 61.4837 91.6578 61.4834 91.9316V106.252C61.4836 106.528 61.5547 106.8 61.69 107.041C61.8253 107.282 62.0202 107.484 62.256 107.628L75.16 115.514C75.413 115.668 75.7038 115.75 76.0004 115.751L76.0019 99.8968L61.6882 91.148Z" fill="url(#paint13_linear_1_1383)"/>
<path d="M90.3156 91.148C90.4486 91.3873 90.5171 91.6578 90.5173 91.9316V106.252C90.5172 106.528 90.446 106.8 90.3107 107.041C90.1754 107.282 89.9805 107.484 89.7447 107.628L76.8407 115.514C76.5877 115.668 76.2969 115.75 76.0004 115.751L76.0019 99.8968L90.3156 91.148Z" fill="url(#paint14_linear_1_1383)"/>
</g>
<g filter="url(#filter5_bi_1_1383)">
<path d="M104.101 32.9505C103.837 32.4699 103.452 32.067 102.983 31.782L77.6498 16.3002C77.153 15.9969 76.5821 15.8364 76 15.8364C75.4179 15.8364 74.847 15.9969 74.3502 16.3002L49.0168 31.782C48.5484 32.067 48.163 32.4699 47.899 32.9505L76 50.1233L104.101 32.9505Z" fill="#1D1D1D" fill-opacity="0.05"/>
<path d="M104.101 32.9505C103.837 32.4699 103.452 32.067 102.983 31.782L77.6498 16.3002C77.153 15.9969 76.5821 15.8364 76 15.8364C75.4179 15.8364 74.847 15.9969 74.3502 16.3002L49.0168 31.782C48.5484 32.067 48.163 32.4699 47.899 32.9505L76 50.1233L104.101 32.9505Z" fill="url(#paint15_linear_1_1383)" fill-opacity="0.2"/>
<path d="M48.7562 32.7712L76 49.4202L103.244 32.7712C103.078 32.5857 102.885 32.4249 102.671 32.2945L102.67 32.294L77.3372 16.8123L48.7562 32.7712ZM48.7562 32.7712C48.9218 32.5857 49.1146 32.4249 49.3287 32.2945L49.3297 32.294L74.6628 16.8123L48.7562 32.7712ZM76 16.4364C76.4717 16.4364 76.9343 16.5664 77.3369 16.8121L74.663 16.8121C75.0657 16.5664 75.5283 16.4364 76 16.4364Z" stroke="url(#paint16_linear_1_1383)" stroke-opacity="0.1" stroke-width="1.2"/>
</g>
<g filter="url(#filter6_bi_1_1383)">
<path d="M47.899 32.9502C47.6383 33.419 47.501 33.9464 47.5 34.4829V62.5965C47.5003 63.139 47.64 63.6723 47.9056 64.1453C48.1712 64.6182 48.5538 65.0151 49.0168 65.2977L74.3502 80.7795C74.8469 81.0834 75.4177 81.2445 76 81.245V50.123L47.899 32.9502Z" fill="#1D1D1D" fill-opacity="0.05"/>
<path d="M47.899 32.9502C47.6383 33.419 47.501 33.9464 47.5 34.4829V62.5965C47.5003 63.139 47.64 63.6723 47.9056 64.1453C48.1712 64.6182 48.5538 65.0151 49.0168 65.2977L74.3502 80.7795C74.8469 81.0834 75.4177 81.2445 76 81.245V50.123L47.899 32.9502Z" fill="url(#paint17_linear_1_1383)" fill-opacity="0.2"/>
<path d="M48.1 34.4835C48.1005 34.2616 48.1297 34.0416 48.1863 33.8289L75.4 50.4595V80.5732C75.1412 80.5107 74.8925 80.408 74.6633 80.2677L74.663 80.2676L49.3297 64.7857L49.3294 64.7856C48.9541 64.5565 48.644 64.2349 48.4287 63.8515C48.2135 63.4682 48.1003 63.0361 48.1 62.5965V34.4835Z" stroke="url(#paint18_linear_1_1383)" stroke-opacity="0.1" stroke-width="1.2"/>
</g>
<g filter="url(#filter7_bi_1_1383)">
<path d="M104.101 32.9502C104.362 33.419 104.499 33.9464 104.5 34.4829V62.5965C104.5 63.139 104.36 63.6723 104.094 64.1453C103.829 64.6182 103.446 65.0151 102.983 65.2977L77.6498 80.7795C77.1531 81.0834 76.5823 81.2445 76 81.245V50.123L104.101 32.9502Z" fill="#1D1D1D" fill-opacity="0.05"/>
<path d="M104.101 32.9502C104.362 33.419 104.499 33.9464 104.5 34.4829V62.5965C104.5 63.139 104.36 63.6723 104.094 64.1453C103.829 64.6182 103.446 65.0151 102.983 65.2977L77.6498 80.7795C77.1531 81.0834 76.5823 81.2445 76 81.245V50.123L104.101 32.9502Z" fill="url(#paint19_linear_1_1383)" fill-opacity="0.2"/>
<path d="M102.671 64.7856L102.67 64.7857L77.337 80.2676L77.3367 80.2677C77.1075 80.408 76.8588 80.5107 76.6 80.5732V50.4595L103.814 33.8289C103.87 34.0415 103.899 34.2614 103.9 34.4831C103.9 34.4834 103.9 34.4837 103.9 34.484L103.9 62.5962C103.9 63.0359 103.787 63.4681 103.571 63.8515C103.356 64.2349 103.046 64.5565 102.671 64.7856Z" stroke="url(#paint20_linear_1_1383)" stroke-opacity="0.1" stroke-width="1.2"/>
</g>
<g filter="url(#filter8_bi_1_1383)">
<path d="M151.601 62.032C151.337 61.5515 150.952 61.1486 150.483 60.8635L125.15 45.3817C124.653 45.0784 124.082 44.918 123.5 44.918C122.918 44.918 122.347 45.0784 121.85 45.3817L96.5168 60.8635C96.0484 61.1486 95.663 61.5515 95.399 62.032L123.5 79.208L151.601 62.032Z" fill="#1D1D1D" fill-opacity="0.05"/>
<path d="M151.601 62.032C151.337 61.5515 150.952 61.1486 150.483 60.8635L125.15 45.3817C124.653 45.0784 124.082 44.918 123.5 44.918C122.918 44.918 122.347 45.0784 121.85 45.3817L96.5168 60.8635C96.0484 61.1486 95.663 61.5515 95.399 62.032L123.5 79.208L151.601 62.032Z" fill="url(#paint21_linear_1_1383)" fill-opacity="0.2"/>
<path d="M96.2561 61.8527L123.5 78.5048L150.744 61.8527C150.578 61.6673 150.385 61.5064 150.171 61.3761L150.17 61.3755L124.837 45.8938L96.2561 61.8527ZM96.2561 61.8527C96.4218 61.6673 96.6145 61.5064 96.8287 61.3761L96.8297 61.3755L122.163 45.8938L96.2561 61.8527ZM123.5 45.518C123.972 45.518 124.434 45.648 124.837 45.8937H122.163C122.566 45.648 123.028 45.518 123.5 45.518Z" stroke="url(#paint22_linear_1_1383)" stroke-opacity="0.1" stroke-width="1.2"/>
</g>
<g filter="url(#filter9_bi_1_1383)">
<path d="M95.399 62.0347C95.1378 62.5045 95.0005 63.033 95 63.5705V91.6842C95.0003 92.2266 95.1399 92.7599 95.4056 93.2329C95.6712 93.7059 96.0538 94.1027 96.5168 94.3853L121.85 109.867C122.347 110.171 122.918 110.332 123.5 110.333V79.2107L95.399 62.0347Z" fill="#1D1D1D" fill-opacity="0.05"/>
<path d="M95.399 62.0347C95.1378 62.5045 95.0005 63.033 95 63.5705V91.6842C95.0003 92.2266 95.1399 92.7599 95.4056 93.2329C95.6712 93.7059 96.0538 94.1027 96.5168 94.3853L121.85 109.867C122.347 110.171 122.918 110.332 123.5 110.333V79.2107L95.399 62.0347Z" fill="url(#paint23_linear_1_1383)" fill-opacity="0.2"/>
<path d="M95.6 63.5708C95.6002 63.348 95.6295 63.1271 95.6863 62.9135L122.9 79.5471V109.661C122.641 109.598 122.393 109.496 122.163 109.355L122.163 109.355L96.8297 93.8734L96.8294 93.8732C96.4541 93.6441 96.144 93.3225 95.9287 92.9391C95.7135 92.5559 95.6003 92.1237 95.6 91.6842V63.5708Z" stroke="url(#paint24_linear_1_1383)" stroke-opacity="0.1" stroke-width="1.2"/>
</g>
<g filter="url(#filter10_bi_1_1383)">
<path d="M151.601 62.0347C151.862 62.5045 152 63.033 152 63.5705V91.6842C152 92.2266 151.86 92.7599 151.594 93.2329C151.329 93.7059 150.946 94.1027 150.483 94.3853L125.15 109.867C124.653 110.171 124.082 110.332 123.5 110.333V79.2107L151.601 62.0347Z" fill="#1D1D1D" fill-opacity="0.05"/>
<path d="M151.601 62.0347C151.862 62.5045 152 63.033 152 63.5705V91.6842C152 92.2266 151.86 92.7599 151.594 93.2329C151.329 93.7059 150.946 94.1027 150.483 94.3853L125.15 109.867C124.653 110.171 124.082 110.332 123.5 110.333V79.2107L151.601 62.0347Z" fill="url(#paint25_linear_1_1383)" fill-opacity="0.2"/>
<path d="M150.171 93.8732L150.17 93.8734L124.837 109.355L124.837 109.355C124.607 109.496 124.359 109.598 124.1 109.661V79.5471L151.314 62.9135C151.371 63.1272 151.4 63.3482 151.4 63.5711V91.6838C151.4 92.1235 151.287 92.5558 151.071 92.9391C150.856 93.3225 150.546 93.6441 150.171 93.8732Z" stroke="url(#paint26_linear_1_1383)" stroke-opacity="0.1" stroke-width="1.2"/>
</g>
<g filter="url(#filter11_bi_1_1383)">
<path d="M56.601 62.032C56.337 61.5515 55.9516 61.1486 55.4832 60.8635L30.1498 45.3817C29.653 45.0784 29.0821 44.918 28.5 44.918C27.9179 44.918 27.3471 45.0784 26.8502 45.3817L1.51685 60.8635C1.04847 61.1486 0.663034 61.5515 0.399017 62.032L28.5 79.208L56.601 62.032Z" fill="#1D1D1D" fill-opacity="0.05"/>
<path d="M56.601 62.032C56.337 61.5515 55.9516 61.1486 55.4832 60.8635L30.1498 45.3817C29.653 45.0784 29.0821 44.918 28.5 44.918C27.9179 44.918 27.3471 45.0784 26.8502 45.3817L1.51685 60.8635C1.04847 61.1486 0.663034 61.5515 0.399017 62.032L28.5 79.208L56.601 62.032Z" fill="url(#paint27_linear_1_1383)" fill-opacity="0.2"/>
<path d="M1.25615 61.8527L28.5 78.5048L55.7439 61.8527C55.5782 61.6673 55.3855 61.5064 55.1713 61.3761L55.1703 61.3755L29.8372 45.8938L1.25615 61.8527ZM1.25615 61.8527C1.42182 61.6673 1.61457 61.5064 1.82877 61.3761L1.82973 61.3755L27.1628 45.8938L1.25615 61.8527ZM28.5 45.518C28.9717 45.518 29.4343 45.648 29.837 45.8937L27.1631 45.8937C27.5657 45.648 28.0283 45.518 28.5 45.518Z" stroke="url(#paint28_linear_1_1383)" stroke-opacity="0.1" stroke-width="1.2"/>
</g>
<g filter="url(#filter12_bi_1_1383)">
<path d="M0.399 62.0347C0.137809 62.5045 0.000498107 63.033 0 63.5705L0 91.6842C0.000302026 92.2266 0.139949 92.7599 0.405554 93.2329C0.671158 93.7059 1.05381 94.1027 1.51683 94.3853L26.8502 109.867C27.3469 110.171 27.9177 110.332 28.5 110.333V79.2107L0.399 62.0347Z" fill="#1D1D1D" fill-opacity="0.05"/>
<path d="M0.399 62.0347C0.137809 62.5045 0.000498107 63.033 0 63.5705L0 91.6842C0.000302026 92.2266 0.139949 92.7599 0.405554 93.2329C0.671158 93.7059 1.05381 94.1027 1.51683 94.3853L26.8502 109.867C27.3469 110.171 27.9177 110.332 28.5 110.333V79.2107L0.399 62.0347Z" fill="url(#paint29_linear_1_1383)" fill-opacity="0.2"/>
<path d="M0.6 63.5708C0.600228 63.348 0.629461 63.1271 0.686296 62.9135L27.9 79.5471V109.661C27.6412 109.598 27.3925 109.496 27.1633 109.355L27.163 109.355L1.82971 93.8734L1.82943 93.8732C1.45414 93.6441 1.14399 93.3225 0.928712 92.9391C0.713488 92.5559 0.600302 92.1237 0.6 91.6842V63.5708Z" stroke="url(#paint30_linear_1_1383)" stroke-opacity="0.1" stroke-width="1.2"/>
</g>
<g filter="url(#filter13_bi_1_1383)">
<path d="M56.601 62.0347C56.8622 62.5045 56.9995 63.033 57 63.5705V91.6842C56.9997 92.2266 56.8601 92.7599 56.5944 93.2329C56.3288 93.7059 55.9462 94.1027 55.4832 94.3853L30.1498 109.867C29.6531 110.171 29.0823 110.332 28.5 110.333V79.2107L56.601 62.0347Z" fill="#1D1D1D" fill-opacity="0.05"/>
<path d="M56.601 62.0347C56.8622 62.5045 56.9995 63.033 57 63.5705V91.6842C56.9997 92.2266 56.8601 92.7599 56.5944 93.2329C56.3288 93.7059 55.9462 94.1027 55.4832 94.3853L30.1498 109.867C29.6531 110.171 29.0823 110.332 28.5 110.333V79.2107L56.601 62.0347Z" fill="url(#paint31_linear_1_1383)" fill-opacity="0.2"/>
<path d="M55.1706 93.8732L55.1703 93.8734L29.837 109.355L29.8367 109.355C29.6075 109.496 29.3588 109.598 29.1 109.661V79.5471L56.3137 62.9135C56.3706 63.1272 56.3998 63.3482 56.4 63.5711V91.6838C56.3998 92.1235 56.2866 92.5558 56.0713 92.9391C55.856 93.3225 55.5459 93.6441 55.1706 93.8732Z" stroke="url(#paint32_linear_1_1383)" stroke-opacity="0.1" stroke-width="1.2"/>
</g>
<g filter="url(#filter14_bi_1_1383)">
<path d="M104.101 93.6614C103.837 93.1809 103.452 92.778 102.983 92.4929L77.6498 77.0111C77.153 76.7078 76.5821 76.5474 76 76.5474C75.4179 76.5474 74.847 76.7078 74.3502 77.0111L49.0168 92.4929C48.5484 92.778 48.163 93.1809 47.899 93.6614L76 110.834L104.101 93.6614Z" fill="#1D1D1D" fill-opacity="0.05"/>
<path d="M104.101 93.6614C103.837 93.1809 103.452 92.778 102.983 92.4929L77.6498 77.0111C77.153 76.7078 76.5821 76.5474 76 76.5474C75.4179 76.5474 74.847 76.7078 74.3502 77.0111L49.0168 92.4929C48.5484 92.778 48.163 93.1809 47.899 93.6614L76 110.834L104.101 93.6614Z" fill="url(#paint33_linear_1_1383)" fill-opacity="0.2"/>
<path d="M102.671 93.0055L102.67 93.0049L77.3372 77.5232L102.671 93.0055ZM102.671 93.0055C102.885 93.1358 103.078 93.2967 103.244 93.4821L76 110.131L48.7562 93.4821C48.9218 93.2967 49.1146 93.1358 49.3287 93.0055L49.3297 93.0049M102.671 93.0055L49.3297 93.0049M49.3297 93.0049L74.6628 77.5232L49.3297 93.0049ZM76 77.1474C76.4717 77.1474 76.9343 77.2774 77.3369 77.5231H74.663C75.0657 77.2774 75.5283 77.1474 76 77.1474Z" stroke="url(#paint34_linear_1_1383)" stroke-opacity="0.1" stroke-width="1.2"/>
</g>
<g filter="url(#filter15_bi_1_1383)">
<path d="M47.899 93.6611C47.6383 94.13 47.501 94.6574 47.5 95.1938V123.307C47.5003 123.85 47.64 124.383 47.9056 124.856C48.1712 125.329 48.5538 125.726 49.0168 126.009L74.3502 141.49C74.8469 141.794 75.4177 141.955 76 141.956V110.834L47.899 93.6611Z" fill="#1D1D1D" fill-opacity="0.05"/>
<path d="M47.899 93.6611C47.6383 94.13 47.501 94.6574 47.5 95.1938V123.307C47.5003 123.85 47.64 124.383 47.9056 124.856C48.1712 125.329 48.5538 125.726 49.0168 126.009L74.3502 141.49C74.8469 141.794 75.4177 141.955 76 141.956V110.834L47.899 93.6611Z" fill="url(#paint35_linear_1_1383)" fill-opacity="0.2"/>
<path d="M48.1 95.1944C48.1005 94.9725 48.1297 94.7526 48.1863 94.5399L75.4 111.17V141.284C75.1412 141.222 74.8925 141.119 74.6633 140.979L74.663 140.978L49.3297 125.497L49.3294 125.497C48.9541 125.267 48.644 124.946 48.4287 124.562C48.2135 124.179 48.1003 123.747 48.1 123.307V95.1944Z" stroke="url(#paint36_linear_1_1383)" stroke-opacity="0.1" stroke-width="1.2"/>
</g>
<g filter="url(#filter16_bi_1_1383)">
<path d="M104.101 93.6611C104.362 94.13 104.499 94.6574 104.5 95.1938V123.307C104.5 123.85 104.36 124.383 104.094 124.856C103.829 125.329 103.446 125.726 102.983 126.009L77.6498 141.49C77.1531 141.794 76.5823 141.955 76 141.956V110.834L104.101 93.6611Z" fill="#1D1D1D" fill-opacity="0.05"/>
<path d="M104.101 93.6611C104.362 94.13 104.499 94.6574 104.5 95.1938V123.307C104.5 123.85 104.36 124.383 104.094 124.856C103.829 125.329 103.446 125.726 102.983 126.009L77.6498 141.49C77.1531 141.794 76.5823 141.955 76 141.956V110.834L104.101 93.6611Z" fill="url(#paint37_linear_1_1383)" fill-opacity="0.2"/>
<path d="M102.671 125.496L102.67 125.497L77.337 140.979L77.3367 140.979C77.1075 141.119 76.8588 141.222 76.6 141.284V111.17L103.814 94.5399C103.87 94.7525 103.899 94.9723 103.9 95.1941C103.9 95.1944 103.9 95.1947 103.9 95.195L103.9 123.307C103.9 123.747 103.787 124.179 103.571 124.562C103.356 124.946 103.046 125.267 102.671 125.496Z" stroke="url(#paint38_linear_1_1383)" stroke-opacity="0.1" stroke-width="1.2"/>
</g>
<defs>
<filter id="filter0_bi_1_1383" x="-4.16349" y="41.5701" width="65.3263" height="72.1128" filterUnits="userSpaceOnUse" color-interpolation-filters="sRGB">
<feFlood flood-opacity="0" result="BackgroundImageFix"/>
<feGaussianBlur in="BackgroundImageFix" stdDeviation="4.83898"/>
<feComposite in2="SourceAlpha" operator="in" result="effect1_backgroundBlur_1_1383"/>
<feBlend mode="normal" in="SourceGraphic" in2="effect1_backgroundBlur_1_1383" result="shape"/>
<feColorMatrix in="SourceAlpha" type="matrix" values="0 0 0 0 0 0 0 0 0 0 0 0 0 0 0 0 0 0 127 0" result="hardAlpha"/>
<feOffset dy="1.61299"/>
<feGaussianBlur stdDeviation="3.22599"/>
<feComposite in2="hardAlpha" operator="arithmetic" k2="-1" k3="1"/>
<feColorMatrix type="matrix" values="0 0 0 0 1 0 0 0 0 1 0 0 0 0 1 0 0 0 0.4 0"/>
<feBlend mode="normal" in2="shape" result="effect2_innerShadow_1_1383"/>
</filter>
<filter id="filter1_bi_1_1383" x="-4.16072" y="41.5701" width="65.3263" height="72.1128" filterUnits="userSpaceOnUse" color-interpolation-filters="sRGB">
<feFlood flood-opacity="0" result="BackgroundImageFix"/>
<feGaussianBlur in="BackgroundImageFix" stdDeviation="4.83898"/>
<feComposite in2="SourceAlpha" operator="in" result="effect1_backgroundBlur_1_1383"/>
<feBlend mode="normal" in="SourceGraphic" in2="effect1_backgroundBlur_1_1383" result="shape"/>
<feColorMatrix in="SourceAlpha" type="matrix" values="0 0 0 0 0 0 0 0 0 0 0 0 0 0 0 0 0 0 127 0" result="hardAlpha"/>
<feOffset dy="1.61299"/>
<feGaussianBlur stdDeviation="3.22599"/>
<feComposite in2="hardAlpha" operator="arithmetic" k2="-1" k3="1"/>
<feColorMatrix type="matrix" values="0 0 0 0 1 0 0 0 0 1 0 0 0 0 1 0 0 0 0.4 0"/>
<feBlend mode="normal" in2="shape" result="effect2_innerShadow_1_1383"/>
</filter>
<filter id="filter2_bi_1_1383" x="51.8064" y="31.4509" width="48.3898" height="52.6757" filterUnits="userSpaceOnUse" color-interpolation-filters="sRGB">
<feFlood flood-opacity="0" result="BackgroundImageFix"/>
<feGaussianBlur in="BackgroundImageFix" stdDeviation="4.83898"/>
<feComposite in2="SourceAlpha" operator="in" result="effect1_backgroundBlur_1_1383"/>
<feBlend mode="normal" in="SourceGraphic" in2="effect1_backgroundBlur_1_1383" result="shape"/>
<feColorMatrix in="SourceAlpha" type="matrix" values="0 0 0 0 0 0 0 0 0 0 0 0 0 0 0 0 0 0 127 0" result="hardAlpha"/>
<feOffset dy="1.61299"/>
<feGaussianBlur stdDeviation="3.22599"/>
<feComposite in2="hardAlpha" operator="arithmetic" k2="-1" k3="1"/>
<feColorMatrix type="matrix" values="0 0 0 0 1 0 0 0 0 1 0 0 0 0 1 0 0 0 0.4 0"/>
<feBlend mode="normal" in2="shape" result="effect2_innerShadow_1_1383"/>
</filter>
<filter id="filter3_bi_1_1383" x="82.5779" y="50.6883" width="50.104" height="52.6757" filterUnits="userSpaceOnUse" color-interpolation-filters="sRGB">
<feFlood flood-opacity="0" result="BackgroundImageFix"/>
<feGaussianBlur in="BackgroundImageFix" stdDeviation="4.83898"/>
<feComposite in2="SourceAlpha" operator="in" result="effect1_backgroundBlur_1_1383"/>
<feBlend mode="normal" in="SourceGraphic" in2="effect1_backgroundBlur_1_1383" result="shape"/>
<feColorMatrix in="SourceAlpha" type="matrix" values="0 0 0 0 0 0 0 0 0 0 0 0 0 0 0 0 0 0 127 0" result="hardAlpha"/>
<feOffset dy="1.61299"/>
<feGaussianBlur stdDeviation="3.22599"/>
<feComposite in2="hardAlpha" operator="arithmetic" k2="-1" k3="1"/>
<feColorMatrix type="matrix" values="0 0 0 0 1 0 0 0 0 1 0 0 0 0 1 0 0 0 0.4 0"/>
<feBlend mode="normal" in2="shape" result="effect2_innerShadow_1_1383"/>
</filter>
<filter id="filter4_bi_1_1383" x="51.8054" y="72.7527" width="48.3898" height="52.6757" filterUnits="userSpaceOnUse" color-interpolation-filters="sRGB">
<feFlood flood-opacity="0" result="BackgroundImageFix"/>
<feGaussianBlur in="BackgroundImageFix" stdDeviation="4.83898"/>
<feComposite in2="SourceAlpha" operator="in" result="effect1_backgroundBlur_1_1383"/>
<feBlend mode="normal" in="SourceGraphic" in2="effect1_backgroundBlur_1_1383" result="shape"/>
<feColorMatrix in="SourceAlpha" type="matrix" values="0 0 0 0 0 0 0 0 0 0 0 0 0 0 0 0 0 0 127 0" result="hardAlpha"/>
<feOffset dy="1.61299"/>
<feGaussianBlur stdDeviation="3.22599"/>
<feComposite in2="hardAlpha" operator="arithmetic" k2="-1" k3="1"/>
<feColorMatrix type="matrix" values="0 0 0 0 1 0 0 0 0 1 0 0 0 0 1 0 0 0 0.4 0"/>
<feBlend mode="normal" in2="shape" result="effect2_innerShadow_1_1383"/>
</filter>
<filter id="filter5_bi_1_1383" x="23.899" y="-8.16357" width="104.202" height="82.2871" filterUnits="userSpaceOnUse" color-interpolation-filters="sRGB">
<feFlood flood-opacity="0" result="BackgroundImageFix"/>
<feGaussianBlur in="BackgroundImageFix" stdDeviation="12"/>
<feComposite in2="SourceAlpha" operator="in" result="effect1_backgroundBlur_1_1383"/>
<feBlend mode="normal" in="SourceGraphic" in2="effect1_backgroundBlur_1_1383" result="shape"/>
<feColorMatrix in="SourceAlpha" type="matrix" values="0 0 0 0 0 0 0 0 0 0 0 0 0 0 0 0 0 0 127 0" result="hardAlpha"/>
<feOffset dy="8"/>
<feGaussianBlur stdDeviation="6"/>
<feComposite in2="hardAlpha" operator="arithmetic" k2="-1" k3="1"/>
<feColorMatrix type="matrix" values="0 0 0 0 1 0 0 0 0 1 0 0 0 0 1 0 0 0 0.15 0"/>
<feBlend mode="normal" in2="shape" result="effect2_innerShadow_1_1383"/>
</filter>
<filter id="filter6_bi_1_1383" x="23.5" y="8.9502" width="76.5" height="96.2949" filterUnits="userSpaceOnUse" color-interpolation-filters="sRGB">
<feFlood flood-opacity="0" result="BackgroundImageFix"/>
<feGaussianBlur in="BackgroundImageFix" stdDeviation="12"/>
<feComposite in2="SourceAlpha" operator="in" result="effect1_backgroundBlur_1_1383"/>
<feBlend mode="normal" in="SourceGraphic" in2="effect1_backgroundBlur_1_1383" result="shape"/>
<feColorMatrix in="SourceAlpha" type="matrix" values="0 0 0 0 0 0 0 0 0 0 0 0 0 0 0 0 0 0 127 0" result="hardAlpha"/>
<feOffset dy="8"/>
<feGaussianBlur stdDeviation="6"/>
<feComposite in2="hardAlpha" operator="arithmetic" k2="-1" k3="1"/>
<feColorMatrix type="matrix" values="0 0 0 0 1 0 0 0 0 1 0 0 0 0 1 0 0 0 0.15 0"/>
<feBlend mode="normal" in2="shape" result="effect2_innerShadow_1_1383"/>
</filter>
<filter id="filter7_bi_1_1383" x="52" y="8.9502" width="76.5" height="96.2949" filterUnits="userSpaceOnUse" color-interpolation-filters="sRGB">
<feFlood flood-opacity="0" result="BackgroundImageFix"/>
<feGaussianBlur in="BackgroundImageFix" stdDeviation="12"/>
<feComposite in2="SourceAlpha" operator="in" result="effect1_backgroundBlur_1_1383"/>
<feBlend mode="normal" in="SourceGraphic" in2="effect1_backgroundBlur_1_1383" result="shape"/>
<feColorMatrix in="SourceAlpha" type="matrix" values="0 0 0 0 0 0 0 0 0 0 0 0 0 0 0 0 0 0 127 0" result="hardAlpha"/>
<feOffset dy="8"/>
<feGaussianBlur stdDeviation="6"/>
<feComposite in2="hardAlpha" operator="arithmetic" k2="-1" k3="1"/>
<feColorMatrix type="matrix" values="0 0 0 0 1 0 0 0 0 1 0 0 0 0 1 0 0 0 0.15 0"/>
<feBlend mode="normal" in2="shape" result="effect2_innerShadow_1_1383"/>
</filter>
<filter id="filter8_bi_1_1383" x="71.399" y="20.918" width="104.202" height="82.29" filterUnits="userSpaceOnUse" color-interpolation-filters="sRGB">
<feFlood flood-opacity="0" result="BackgroundImageFix"/>
<feGaussianBlur in="BackgroundImageFix" stdDeviation="12"/>
<feComposite in2="SourceAlpha" operator="in" result="effect1_backgroundBlur_1_1383"/>
<feBlend mode="normal" in="SourceGraphic" in2="effect1_backgroundBlur_1_1383" result="shape"/>
<feColorMatrix in="SourceAlpha" type="matrix" values="0 0 0 0 0 0 0 0 0 0 0 0 0 0 0 0 0 0 127 0" result="hardAlpha"/>
<feOffset dy="8"/>
<feGaussianBlur stdDeviation="6"/>
<feComposite in2="hardAlpha" operator="arithmetic" k2="-1" k3="1"/>
<feColorMatrix type="matrix" values="0 0 0 0 1 0 0 0 0 1 0 0 0 0 1 0 0 0 0.15 0"/>
<feBlend mode="normal" in2="shape" result="effect2_innerShadow_1_1383"/>
</filter>
<filter id="filter9_bi_1_1383" x="71" y="38.0347" width="76.5" height="96.2979" filterUnits="userSpaceOnUse" color-interpolation-filters="sRGB">
<feFlood flood-opacity="0" result="BackgroundImageFix"/>
<feGaussianBlur in="BackgroundImageFix" stdDeviation="12"/>
<feComposite in2="SourceAlpha" operator="in" result="effect1_backgroundBlur_1_1383"/>
<feBlend mode="normal" in="SourceGraphic" in2="effect1_backgroundBlur_1_1383" result="shape"/>
<feColorMatrix in="SourceAlpha" type="matrix" values="0 0 0 0 0 0 0 0 0 0 0 0 0 0 0 0 0 0 127 0" result="hardAlpha"/>
<feOffset dy="8"/>
<feGaussianBlur stdDeviation="6"/>
<feComposite in2="hardAlpha" operator="arithmetic" k2="-1" k3="1"/>
<feColorMatrix type="matrix" values="0 0 0 0 1 0 0 0 0 1 0 0 0 0 1 0 0 0 0.15 0"/>
<feBlend mode="normal" in2="shape" result="effect2_innerShadow_1_1383"/>
</filter>
<filter id="filter10_bi_1_1383" x="99.5" y="38.0347" width="76.5" height="96.2979" filterUnits="userSpaceOnUse" color-interpolation-filters="sRGB">
<feFlood flood-opacity="0" result="BackgroundImageFix"/>
<feGaussianBlur in="BackgroundImageFix" stdDeviation="12"/>
<feComposite in2="SourceAlpha" operator="in" result="effect1_backgroundBlur_1_1383"/>
<feBlend mode="normal" in="SourceGraphic" in2="effect1_backgroundBlur_1_1383" result="shape"/>
<feColorMatrix in="SourceAlpha" type="matrix" values="0 0 0 0 0 0 0 0 0 0 0 0 0 0 0 0 0 0 127 0" result="hardAlpha"/>
<feOffset dy="8"/>
<feGaussianBlur stdDeviation="6"/>
<feComposite in2="hardAlpha" operator="arithmetic" k2="-1" k3="1"/>
<feColorMatrix type="matrix" values="0 0 0 0 1 0 0 0 0 1 0 0 0 0 1 0 0 0 0.15 0"/>
<feBlend mode="normal" in2="shape" result="effect2_innerShadow_1_1383"/>
</filter>
<filter id="filter11_bi_1_1383" x="-23.601" y="20.918" width="104.202" height="82.29" filterUnits="userSpaceOnUse" color-interpolation-filters="sRGB">
<feFlood flood-opacity="0" result="BackgroundImageFix"/>
<feGaussianBlur in="BackgroundImageFix" stdDeviation="12"/>
<feComposite in2="SourceAlpha" operator="in" result="effect1_backgroundBlur_1_1383"/>
<feBlend mode="normal" in="SourceGraphic" in2="effect1_backgroundBlur_1_1383" result="shape"/>
<feColorMatrix in="SourceAlpha" type="matrix" values="0 0 0 0 0 0 0 0 0 0 0 0 0 0 0 0 0 0 127 0" result="hardAlpha"/>
<feOffset dy="8"/>
<feGaussianBlur stdDeviation="6"/>
<feComposite in2="hardAlpha" operator="arithmetic" k2="-1" k3="1"/>
<feColorMatrix type="matrix" values="0 0 0 0 1 0 0 0 0 1 0 0 0 0 1 0 0 0 0.15 0"/>
<feBlend mode="normal" in2="shape" result="effect2_innerShadow_1_1383"/>
</filter>
<filter id="filter12_bi_1_1383" x="-24" y="38.0347" width="76.5" height="96.2979" filterUnits="userSpaceOnUse" color-interpolation-filters="sRGB">
<feFlood flood-opacity="0" result="BackgroundImageFix"/>
<feGaussianBlur in="BackgroundImageFix" stdDeviation="12"/>
<feComposite in2="SourceAlpha" operator="in" result="effect1_backgroundBlur_1_1383"/>
<feBlend mode="normal" in="SourceGraphic" in2="effect1_backgroundBlur_1_1383" result="shape"/>
<feColorMatrix in="SourceAlpha" type="matrix" values="0 0 0 0 0 0 0 0 0 0 0 0 0 0 0 0 0 0 127 0" result="hardAlpha"/>
<feOffset dy="8"/>
<feGaussianBlur stdDeviation="6"/>
<feComposite in2="hardAlpha" operator="arithmetic" k2="-1" k3="1"/>
<feColorMatrix type="matrix" values="0 0 0 0 1 0 0 0 0 1 0 0 0 0 1 0 0 0 0.15 0"/>
<feBlend mode="normal" in2="shape" result="effect2_innerShadow_1_1383"/>
</filter>
<filter id="filter13_bi_1_1383" x="4.5" y="38.0347" width="76.5" height="96.2979" filterUnits="userSpaceOnUse" color-interpolation-filters="sRGB">
<feFlood flood-opacity="0" result="BackgroundImageFix"/>
<feGaussianBlur in="BackgroundImageFix" stdDeviation="12"/>
<feComposite in2="SourceAlpha" operator="in" result="effect1_backgroundBlur_1_1383"/>
<feBlend mode="normal" in="SourceGraphic" in2="effect1_backgroundBlur_1_1383" result="shape"/>
<feColorMatrix in="SourceAlpha" type="matrix" values="0 0 0 0 0 0 0 0 0 0 0 0 0 0 0 0 0 0 127 0" result="hardAlpha"/>
<feOffset dy="8"/>
<feGaussianBlur stdDeviation="6"/>
<feComposite in2="hardAlpha" operator="arithmetic" k2="-1" k3="1"/>
<feColorMatrix type="matrix" values="0 0 0 0 1 0 0 0 0 1 0 0 0 0 1 0 0 0 0.15 0"/>
<feBlend mode="normal" in2="shape" result="effect2_innerShadow_1_1383"/>
</filter>
<filter id="filter14_bi_1_1383" x="23.899" y="52.5474" width="104.202" height="82.2871" filterUnits="userSpaceOnUse" color-interpolation-filters="sRGB">
<feFlood flood-opacity="0" result="BackgroundImageFix"/>
<feGaussianBlur in="BackgroundImageFix" stdDeviation="12"/>
<feComposite in2="SourceAlpha" operator="in" result="effect1_backgroundBlur_1_1383"/>
<feBlend mode="normal" in="SourceGraphic" in2="effect1_backgroundBlur_1_1383" result="shape"/>
<feColorMatrix in="SourceAlpha" type="matrix" values="0 0 0 0 0 0 0 0 0 0 0 0 0 0 0 0 0 0 127 0" result="hardAlpha"/>
<feOffset dy="8"/>
<feGaussianBlur stdDeviation="6"/>
<feComposite in2="hardAlpha" operator="arithmetic" k2="-1" k3="1"/>
<feColorMatrix type="matrix" values="0 0 0 0 1 0 0 0 0 1 0 0 0 0 1 0 0 0 0.15 0"/>
<feBlend mode="normal" in2="shape" result="effect2_innerShadow_1_1383"/>
</filter>
<filter id="filter15_bi_1_1383" x="23.5" y="69.6611" width="76.5" height="96.2949" filterUnits="userSpaceOnUse" color-interpolation-filters="sRGB">
<feFlood flood-opacity="0" result="BackgroundImageFix"/>
<feGaussianBlur in="BackgroundImageFix" stdDeviation="12"/>
<feComposite in2="SourceAlpha" operator="in" result="effect1_backgroundBlur_1_1383"/>
<feBlend mode="normal" in="SourceGraphic" in2="effect1_backgroundBlur_1_1383" result="shape"/>
<feColorMatrix in="SourceAlpha" type="matrix" values="0 0 0 0 0 0 0 0 0 0 0 0 0 0 0 0 0 0 127 0" result="hardAlpha"/>
<feOffset dy="8"/>
<feGaussianBlur stdDeviation="6"/>
<feComposite in2="hardAlpha" operator="arithmetic" k2="-1" k3="1"/>
<feColorMatrix type="matrix" values="0 0 0 0 1 0 0 0 0 1 0 0 0 0 1 0 0 0 0.15 0"/>
<feBlend mode="normal" in2="shape" result="effect2_innerShadow_1_1383"/>
</filter>
<filter id="filter16_bi_1_1383" x="52" y="69.6611" width="76.5" height="96.2949" filterUnits="userSpaceOnUse" color-interpolation-filters="sRGB">
<feFlood flood-opacity="0" result="BackgroundImageFix"/>
<feGaussianBlur in="BackgroundImageFix" stdDeviation="12"/>
<feComposite in2="SourceAlpha" operator="in" result="effect1_backgroundBlur_1_1383"/>
<feBlend mode="normal" in="SourceGraphic" in2="effect1_backgroundBlur_1_1383" result="shape"/>
<feColorMatrix in="SourceAlpha" type="matrix" values="0 0 0 0 0 0 0 0 0 0 0 0 0 0 0 0 0 0 127 0" result="hardAlpha"/>
<feOffset dy="8"/>
<feGaussianBlur stdDeviation="6"/>
<feComposite in2="hardAlpha" operator="arithmetic" k2="-1" k3="1"/>
<feColorMatrix type="matrix" values="0 0 0 0 1 0 0 0 0 1 0 0 0 0 1 0 0 0 0.15 0"/>
<feBlend mode="normal" in2="shape" result="effect2_innerShadow_1_1383"/>
</filter>
<linearGradient id="paint0_linear_1_1383" x1="7.4299" y1="61.7994" x2="57.7707" y2="67.8918" gradientUnits="userSpaceOnUse">
<stop stop-color="#8AE6CF"/>
<stop offset="1" stop-color="#7C3AE7"/>
</linearGradient>
<linearGradient id="paint1_linear_1_1383" x1="7.4299" y1="61.7994" x2="57.7707" y2="67.8918" gradientUnits="userSpaceOnUse">
<stop stop-color="#8AE6CF"/>
<stop offset="1" stop-color="#7C3AE7"/>
</linearGradient>
<linearGradient id="paint2_linear_1_1383" x1="7.4299" y1="61.7994" x2="57.7707" y2="67.8918" gradientUnits="userSpaceOnUse">
<stop stop-color="#8AE6CF"/>
<stop offset="1" stop-color="#7C3AE7"/>
</linearGradient>
<linearGradient id="paint3_linear_1_1383" x1="7.43267" y1="61.7994" x2="57.7735" y2="67.8918" gradientUnits="userSpaceOnUse">
<stop stop-color="#8AE6CF"/>
<stop offset="1" stop-color="#7C3AE7"/>
</linearGradient>
<linearGradient id="paint4_linear_1_1383" x1="7.43267" y1="61.7994" x2="57.7735" y2="67.8918" gradientUnits="userSpaceOnUse">
<stop stop-color="#8AE6CF"/>
<stop offset="1" stop-color="#7C3AE7"/>
</linearGradient>
<linearGradient id="paint5_linear_1_1383" x1="7.43267" y1="61.7994" x2="57.7735" y2="67.8918" gradientUnits="userSpaceOnUse">
<stop stop-color="#8AE6CF"/>
<stop offset="1" stop-color="#7C3AE7"/>
</linearGradient>
<linearGradient id="paint6_linear_1_1383" x1="62.6941" y1="47.7929" x2="94.4883" y2="51.6407" gradientUnits="userSpaceOnUse">
<stop stop-color="#8AE6CF"/>
<stop offset="1" stop-color="#7C3AE7"/>
</linearGradient>
<linearGradient id="paint7_linear_1_1383" x1="62.6941" y1="47.7929" x2="94.4883" y2="51.6407" gradientUnits="userSpaceOnUse">
<stop stop-color="#8AE6CF"/>
<stop offset="1" stop-color="#7C3AE7"/>
</linearGradient>
<linearGradient id="paint8_linear_1_1383" x1="62.6941" y1="47.7929" x2="94.4883" y2="51.6407" gradientUnits="userSpaceOnUse">
<stop stop-color="#8AE6CF"/>
<stop offset="1" stop-color="#7C3AE7"/>
</linearGradient>
<linearGradient id="paint9_linear_1_1383" x1="93.537" y1="67.0302" x2="127.149" y2="71.3383" gradientUnits="userSpaceOnUse">
<stop stop-color="#8AE6CF"/>
<stop offset="1" stop-color="#7C3AE7"/>
</linearGradient>
<linearGradient id="paint10_linear_1_1383" x1="93.537" y1="67.0302" x2="127.149" y2="71.3383" gradientUnits="userSpaceOnUse">
<stop stop-color="#8AE6CF"/>
<stop offset="1" stop-color="#7C3AE7"/>
</linearGradient>
<linearGradient id="paint11_linear_1_1383" x1="93.537" y1="67.0302" x2="127.149" y2="71.3383" gradientUnits="userSpaceOnUse">
<stop stop-color="#8AE6CF"/>
<stop offset="1" stop-color="#7C3AE7"/>
</linearGradient>
<linearGradient id="paint12_linear_1_1383" x1="62.6931" y1="89.0947" x2="94.4874" y2="92.9425" gradientUnits="userSpaceOnUse">
<stop stop-color="#8AE6CF"/>
<stop offset="1" stop-color="#7C3AE7"/>
</linearGradient>
<linearGradient id="paint13_linear_1_1383" x1="62.6931" y1="89.0947" x2="94.4874" y2="92.9425" gradientUnits="userSpaceOnUse">
<stop stop-color="#8AE6CF"/>
<stop offset="1" stop-color="#7C3AE7"/>
</linearGradient>
<linearGradient id="paint14_linear_1_1383" x1="62.6931" y1="89.0947" x2="94.4874" y2="92.9425" gradientUnits="userSpaceOnUse">
<stop stop-color="#8AE6CF"/>
<stop offset="1" stop-color="#7C3AE7"/>
</linearGradient>
<linearGradient id="paint15_linear_1_1383" x1="50.2407" y1="22.6938" x2="109.61" y2="36.21" gradientUnits="userSpaceOnUse">
<stop stop-color="#66FECB"/>
<stop offset="1" stop-color="#8940FF"/>
</linearGradient>
<linearGradient id="paint16_linear_1_1383" x1="49.6553" y1="17.3949" x2="104.101" y2="17.3949" gradientUnits="userSpaceOnUse">
<stop stop-color="#C8A6FF"/>
<stop offset="1" stop-color="#69CFB5"/>
</linearGradient>
<linearGradient id="paint17_linear_1_1383" x1="48.6875" y1="42.6092" x2="80.1429" y2="45.1873" gradientUnits="userSpaceOnUse">
<stop stop-color="#66FECB"/>
<stop offset="1" stop-color="#8940FF"/>
</linearGradient>
<linearGradient id="paint18_linear_1_1383" x1="48.3906" y1="35.1454" x2="76" y2="35.1454" gradientUnits="userSpaceOnUse">
<stop stop-color="#C8A6FF"/>
<stop offset="1" stop-color="#69CFB5"/>
</linearGradient>
<linearGradient id="paint19_linear_1_1383" x1="77.1875" y1="42.6092" x2="108.643" y2="45.1873" gradientUnits="userSpaceOnUse">
<stop stop-color="#66FECB"/>
<stop offset="1" stop-color="#8940FF"/>
</linearGradient>
<linearGradient id="paint20_linear_1_1383" x1="76.8906" y1="35.1454" x2="104.5" y2="35.1454" gradientUnits="userSpaceOnUse">
<stop stop-color="#C8A6FF"/>
<stop offset="1" stop-color="#69CFB5"/>
</linearGradient>
<linearGradient id="paint21_linear_1_1383" x1="97.7407" y1="51.776" x2="157.111" y2="65.2911" gradientUnits="userSpaceOnUse">
<stop stop-color="#66FECB"/>
<stop offset="1" stop-color="#8940FF"/>
</linearGradient>
<linearGradient id="paint22_linear_1_1383" x1="97.1553" y1="46.4766" x2="151.601" y2="46.4766" gradientUnits="userSpaceOnUse">
<stop stop-color="#C8A6FF"/>
<stop offset="1" stop-color="#69CFB5"/>
</linearGradient>
<linearGradient id="paint23_linear_1_1383" x1="96.1875" y1="71.6943" x2="127.643" y2="74.2722" gradientUnits="userSpaceOnUse">
<stop stop-color="#66FECB"/>
<stop offset="1" stop-color="#8940FF"/>
</linearGradient>
<linearGradient id="paint24_linear_1_1383" x1="95.8906" y1="64.23" x2="123.5" y2="64.23" gradientUnits="userSpaceOnUse">
<stop stop-color="#C8A6FF"/>
<stop offset="1" stop-color="#69CFB5"/>
</linearGradient>
<linearGradient id="paint25_linear_1_1383" x1="124.687" y1="71.6943" x2="156.143" y2="74.2722" gradientUnits="userSpaceOnUse">
<stop stop-color="#66FECB"/>
<stop offset="1" stop-color="#8940FF"/>
</linearGradient>
<linearGradient id="paint26_linear_1_1383" x1="124.391" y1="64.23" x2="152" y2="64.23" gradientUnits="userSpaceOnUse">
<stop stop-color="#C8A6FF"/>
<stop offset="1" stop-color="#69CFB5"/>
</linearGradient>
<linearGradient id="paint27_linear_1_1383" x1="2.74077" y1="51.776" x2="62.1108" y2="65.2911" gradientUnits="userSpaceOnUse">
<stop stop-color="#66FECB"/>
<stop offset="1" stop-color="#8940FF"/>
</linearGradient>
<linearGradient id="paint28_linear_1_1383" x1="2.15533" y1="46.4766" x2="56.601" y2="46.4766" gradientUnits="userSpaceOnUse">
<stop stop-color="#C8A6FF"/>
<stop offset="1" stop-color="#69CFB5"/>
</linearGradient>
<linearGradient id="paint29_linear_1_1383" x1="1.1875" y1="71.6943" x2="32.6429" y2="74.2722" gradientUnits="userSpaceOnUse">
<stop stop-color="#66FECB"/>
<stop offset="1" stop-color="#8940FF"/>
</linearGradient>
<linearGradient id="paint30_linear_1_1383" x1="0.890625" y1="64.23" x2="28.5" y2="64.23" gradientUnits="userSpaceOnUse">
<stop stop-color="#C8A6FF"/>
<stop offset="1" stop-color="#69CFB5"/>
</linearGradient>
<linearGradient id="paint31_linear_1_1383" x1="29.6875" y1="71.6943" x2="61.1429" y2="74.2722" gradientUnits="userSpaceOnUse">
<stop stop-color="#66FECB"/>
<stop offset="1" stop-color="#8940FF"/>
</linearGradient>
<linearGradient id="paint32_linear_1_1383" x1="29.3906" y1="64.23" x2="57" y2="64.23" gradientUnits="userSpaceOnUse">
<stop stop-color="#C8A6FF"/>
<stop offset="1" stop-color="#69CFB5"/>
</linearGradient>
<linearGradient id="paint33_linear_1_1383" x1="50.2407" y1="83.4047" x2="109.61" y2="96.921" gradientUnits="userSpaceOnUse">
<stop stop-color="#66FECB"/>
<stop offset="1" stop-color="#8940FF"/>
</linearGradient>
<linearGradient id="paint34_linear_1_1383" x1="49.6553" y1="78.1059" x2="104.101" y2="78.1059" gradientUnits="userSpaceOnUse">
<stop stop-color="#C8A6FF"/>
<stop offset="1" stop-color="#69CFB5"/>
</linearGradient>
<linearGradient id="paint35_linear_1_1383" x1="48.6875" y1="103.32" x2="80.1429" y2="105.898" gradientUnits="userSpaceOnUse">
<stop stop-color="#66FECB"/>
<stop offset="1" stop-color="#8940FF"/>
</linearGradient>
<linearGradient id="paint36_linear_1_1383" x1="48.3906" y1="95.8564" x2="76" y2="95.8564" gradientUnits="userSpaceOnUse">
<stop stop-color="#C8A6FF"/>
<stop offset="1" stop-color="#69CFB5"/>
</linearGradient>
<linearGradient id="paint37_linear_1_1383" x1="77.1875" y1="103.32" x2="108.643" y2="105.898" gradientUnits="userSpaceOnUse">
<stop stop-color="#66FECB"/>
<stop offset="1" stop-color="#8940FF"/>
</linearGradient>
<linearGradient id="paint38_linear_1_1383" x1="76.8906" y1="95.8564" x2="104.5" y2="95.8564" gradientUnits="userSpaceOnUse">
<stop stop-color="#C8A6FF"/>
<stop offset="1" stop-color="#69CFB5"/>
</linearGradient>
</defs>
</svg>
