<svg width="152" height="152" viewBox="0 0 152 152" fill="none" xmlns="http://www.w3.org/2000/svg">
<g clip-path="url(#clip0_1_1419)">
<path d="M76.0011 72.6914C88.7762 72.6914 99.1325 62.3352 99.1325 49.5601C99.1325 36.785 88.7762 26.4287 76.0011 26.4287C63.226 26.4287 52.8697 36.785 52.8697 49.5601C52.8697 62.3352 63.226 72.6914 76.0011 72.6914Z" fill="url(#paint0_linear_1_1419)"/>
<path d="M76.0016 105.736C83.3016 105.736 89.2195 99.8183 89.2195 92.5182C89.2195 85.2182 83.3016 79.3003 76.0016 79.3003C68.7015 79.3003 62.7837 85.2182 62.7837 92.5182C62.7837 99.8183 68.7015 105.736 76.0016 105.736Z" fill="url(#paint1_linear_1_1419)"/>
<path d="M76.0016 151.999C83.3016 151.999 89.2195 146.081 89.2195 138.781C89.2195 131.481 83.3016 125.563 76.0016 125.563C68.7015 125.563 62.7837 131.481 62.7837 138.781C62.7837 146.081 68.7015 151.999 76.0016 151.999Z" fill="url(#paint2_linear_1_1419)"/>
<path d="M39.6519 142.086C46.9519 142.086 52.8698 136.168 52.8698 128.868C52.8698 121.568 46.9519 115.65 39.6519 115.65C32.3518 115.65 26.4339 121.568 26.4339 128.868C26.4339 136.168 32.3518 142.086 39.6519 142.086Z" fill="url(#paint3_linear_1_1419)"/>
<path d="M112.351 142.086C119.651 142.086 125.569 136.168 125.569 128.868C125.569 121.568 119.651 115.65 112.351 115.65C105.051 115.65 99.1331 121.568 99.1331 128.868C99.1331 136.168 105.051 142.086 112.351 142.086Z" fill="url(#paint4_linear_1_1419)"/>
<g filter="url(#filter0_bi_1_1419)">
<path d="M108.385 85.9104C107.729 85.9103 107.087 85.7148 106.543 85.3488C105.998 84.9828 105.575 84.4629 105.326 83.8553C105.078 83.2477 105.017 82.58 105.149 81.9373C105.282 81.2946 105.603 80.706 106.072 80.2465C112.166 74.2735 116.343 66.621 118.07 58.2647C119.797 49.9084 118.997 41.2271 115.771 33.3274C112.545 25.4278 107.04 18.6678 99.9567 13.9095C92.8737 9.1511 84.5341 6.60991 76.0012 6.60991C67.4682 6.60991 59.1286 9.1511 52.0456 13.9095C44.9626 18.6678 39.4572 25.4278 36.2312 33.3274C33.0053 41.2271 32.205 49.9084 33.9324 58.2647C35.6598 66.621 39.8367 74.2735 45.9304 80.2465C46.2474 80.5486 46.5013 80.9107 46.6772 81.3117C46.8531 81.7128 46.9475 82.1448 46.955 82.5826C46.9624 83.0205 46.8828 83.4555 46.7207 83.8623C46.5585 84.2691 46.3172 84.6396 46.0106 84.9523C45.704 85.265 45.3383 85.5137 44.9348 85.6838C44.5313 85.854 44.098 85.9422 43.6601 85.9434C43.2222 85.9446 42.7884 85.8588 42.3839 85.6909C41.9795 85.523 41.6124 85.2763 41.3041 84.9653C34.2729 78.0733 29.4534 69.2435 27.4603 59.6017C25.4671 49.9598 26.3905 39.9429 30.1128 30.8279C33.835 21.7129 40.1875 13.913 48.3601 8.42256C56.5328 2.93214 66.1555 0 76.0012 0C85.8469 0 95.4695 2.93214 103.642 8.42256C111.815 13.913 118.167 21.7129 121.89 30.8279C125.612 39.9429 126.535 49.9598 124.542 59.6017C122.549 69.2435 117.729 78.0733 110.698 84.9653C110.081 85.571 109.25 85.9103 108.385 85.9104Z" fill="#1D1D1D" fill-opacity="0.05"/>
<path d="M108.385 85.9104C107.729 85.9103 107.087 85.7148 106.543 85.3488C105.998 84.9828 105.575 84.4629 105.326 83.8553C105.078 83.2477 105.017 82.58 105.149 81.9373C105.282 81.2946 105.603 80.706 106.072 80.2465C112.166 74.2735 116.343 66.621 118.07 58.2647C119.797 49.9084 118.997 41.2271 115.771 33.3274C112.545 25.4278 107.04 18.6678 99.9567 13.9095C92.8737 9.1511 84.5341 6.60991 76.0012 6.60991C67.4682 6.60991 59.1286 9.1511 52.0456 13.9095C44.9626 18.6678 39.4572 25.4278 36.2312 33.3274C33.0053 41.2271 32.205 49.9084 33.9324 58.2647C35.6598 66.621 39.8367 74.2735 45.9304 80.2465C46.2474 80.5486 46.5013 80.9107 46.6772 81.3117C46.8531 81.7128 46.9475 82.1448 46.955 82.5826C46.9624 83.0205 46.8828 83.4555 46.7207 83.8623C46.5585 84.2691 46.3172 84.6396 46.0106 84.9523C45.704 85.265 45.3383 85.5137 44.9348 85.6838C44.5313 85.854 44.098 85.9422 43.6601 85.9434C43.2222 85.9446 42.7884 85.8588 42.3839 85.6909C41.9795 85.523 41.6124 85.2763 41.3041 84.9653C34.2729 78.0733 29.4534 69.2435 27.4603 59.6017C25.4671 49.9598 26.3905 39.9429 30.1128 30.8279C33.835 21.7129 40.1875 13.913 48.3601 8.42256C56.5328 2.93214 66.1555 0 76.0012 0C85.8469 0 95.4695 2.93214 103.642 8.42256C111.815 13.913 118.167 21.7129 121.89 30.8279C125.612 39.9429 126.535 49.9598 124.542 59.6017C122.549 69.2435 117.729 78.0733 110.698 84.9653C110.081 85.571 109.25 85.9103 108.385 85.9104Z" fill="url(#paint5_linear_1_1419)" fill-opacity="0.2"/>
<path d="M45.5103 80.675L45.5104 80.675C39.3315 74.6185 35.0964 66.8591 33.3448 58.3862C31.5933 49.9132 32.4047 41.1105 35.6757 33.1006C38.9467 25.0906 44.5291 18.2362 51.711 13.4114C58.893 8.58659 67.3491 6.00991 76.0012 6.00991C84.6533 6.00991 93.1094 8.58659 100.291 13.4114C107.473 18.2362 113.056 25.0906 116.327 33.1006C119.598 41.1105 120.409 49.9132 118.658 58.3862C116.906 66.8591 112.671 74.6185 106.492 80.6749C106.109 81.051 105.846 81.5327 105.737 82.0587C105.628 82.5847 105.679 83.1312 105.882 83.6284C106.085 84.1257 106.431 84.5512 106.877 84.8508C107.323 85.1503 107.848 85.3103 108.385 85.3104L45.5103 80.675ZM45.5103 80.675L45.5165 80.6809M45.5103 80.675L45.5165 80.6809M45.5165 80.6809C45.776 80.9281 45.9838 81.2245 46.1277 81.5527C46.2717 81.8809 46.3489 82.2345 46.355 82.5929C46.3612 82.9512 46.296 83.3072 46.1633 83.6402C46.0306 83.9731 45.8331 84.2764 45.5821 84.5323C45.3312 84.7882 45.032 84.9917 44.7017 85.131C44.3715 85.2702 44.0168 85.3424 43.6584 85.3434C43.3 85.3444 42.945 85.2742 42.614 85.1367C42.283 84.9993 41.9826 84.7975 41.7302 84.5429L41.7303 84.5429M45.5165 80.6809L41.7303 84.5429M41.7303 84.5429L41.7241 84.5368M41.7303 84.5429L41.7241 84.5368M41.7241 84.5368C34.778 77.7283 30.0169 69.0053 28.0478 59.4802C26.0788 49.9551 26.991 40.0594 30.6682 31.0547C34.3454 22.0501 40.621 14.3446 48.6947 8.92061C56.7685 3.49665 66.2747 0.6 76.0012 0.6C85.7277 0.6 95.2338 3.49665 103.308 8.92061C111.381 14.3446 117.657 22.0501 121.334 31.0547C125.011 40.0594 125.924 49.9551 123.954 59.4802C121.985 69.0053 117.224 77.7283 110.278 84.5368L110.278 84.5369M41.7241 84.5368L110.278 84.5369M110.278 84.5369C109.773 85.0325 109.093 85.3102 108.385 85.3104L110.278 84.5369Z" stroke="url(#paint6_linear_1_1419)" stroke-opacity="0.1" stroke-width="1.2"/>
</g>
<g filter="url(#filter1_bi_1_1419)">
<path d="M76.0017 132.173C75.1253 132.173 74.2848 131.825 73.6651 131.205C73.0454 130.585 72.6973 129.745 72.6973 128.868V102.432C72.6973 101.556 73.0454 100.715 73.6651 100.096C74.2848 99.4761 75.1253 99.1279 76.0017 99.1279C76.8781 99.1279 77.7187 99.4761 78.3384 100.096C78.9581 100.715 79.3062 101.556 79.3062 102.432V128.868C79.3062 129.745 78.9581 130.585 78.3384 131.205C77.7187 131.825 76.8781 132.173 76.0017 132.173Z" fill="#1D1D1D" fill-opacity="0.05"/>
<path d="M76.0017 132.173C75.1253 132.173 74.2848 131.825 73.6651 131.205C73.0454 130.585 72.6973 129.745 72.6973 128.868V102.432C72.6973 101.556 73.0454 100.715 73.6651 100.096C74.2848 99.4761 75.1253 99.1279 76.0017 99.1279C76.8781 99.1279 77.7187 99.4761 78.3384 100.096C78.9581 100.715 79.3062 101.556 79.3062 102.432V128.868C79.3062 129.745 78.9581 130.585 78.3384 131.205C77.7187 131.825 76.8781 132.173 76.0017 132.173Z" fill="url(#paint7_linear_1_1419)" fill-opacity="0.2"/>
<path d="M76.0017 131.573C75.2845 131.573 74.5966 131.288 74.0894 130.781C73.5822 130.273 73.2973 129.586 73.2973 128.868V102.432C73.2973 101.715 73.5822 101.027 74.0894 100.52C74.5966 100.013 75.2845 99.7279 76.0017 99.7279C76.719 99.7279 77.4069 100.013 77.9141 100.52C78.4213 101.027 78.7062 101.715 78.7062 102.432V128.868C78.7062 129.586 78.4213 130.273 77.9141 130.781C77.4069 131.288 76.719 131.573 76.0017 131.573Z" stroke="url(#paint8_linear_1_1419)" stroke-opacity="0.1" stroke-width="1.2"/>
</g>
<g filter="url(#filter2_bi_1_1419)">
<path d="M39.6524 122.26C38.776 122.26 37.9355 121.912 37.3158 121.293C36.6961 120.673 36.3479 119.832 36.3479 118.956V105.738C36.3446 105.121 36.5139 104.516 36.8369 103.99C37.1598 103.464 37.6235 103.04 38.1753 102.764L64.6111 89.5461C65.3955 89.1544 66.3034 89.0902 67.1351 89.3679C67.9667 89.6455 68.654 90.2421 69.0458 91.0265C69.4375 91.8109 69.5016 92.7188 69.224 93.5504C68.9464 94.3821 68.3497 95.0694 67.5654 95.4611L42.9569 107.78V118.956C42.9569 119.832 42.6087 120.673 41.989 121.293C41.3693 121.912 40.5288 122.26 39.6524 122.26Z" fill="#1D1D1D" fill-opacity="0.05"/>
<path d="M39.6524 122.26C38.776 122.26 37.9355 121.912 37.3158 121.293C36.6961 120.673 36.3479 119.832 36.3479 118.956V105.738C36.3446 105.121 36.5139 104.516 36.8369 103.99C37.1598 103.464 37.6235 103.04 38.1753 102.764L64.6111 89.5461C65.3955 89.1544 66.3034 89.0902 67.1351 89.3679C67.9667 89.6455 68.654 90.2421 69.0458 91.0265C69.4375 91.8109 69.5016 92.7188 69.224 93.5504C68.9464 94.3821 68.3497 95.0694 67.5654 95.4611L42.9569 107.78V118.956C42.9569 119.832 42.6087 120.673 41.989 121.293C41.3693 121.912 40.5288 122.26 39.6524 122.26Z" fill="url(#paint9_linear_1_1419)" fill-opacity="0.2"/>
<path d="M36.9479 105.738L36.9479 105.735C36.9452 105.23 37.0838 104.734 37.3481 104.304C37.6124 103.874 37.9919 103.526 38.4435 103.301L38.4436 103.301L64.8792 90.0829C65.5213 89.7622 66.2644 89.7098 66.9451 89.937C67.6258 90.1642 68.1883 90.6526 68.509 91.2946C68.8296 91.9366 68.8821 92.6797 68.6549 93.3604C68.4276 94.0411 67.9393 94.6037 67.2973 94.9243L67.2968 94.9246L42.6883 107.244L42.3569 107.41V107.78V118.956C42.3569 119.673 42.0719 120.361 41.5648 120.868C41.0576 121.376 40.3697 121.66 39.6524 121.66C38.9351 121.66 38.2472 121.376 37.74 120.868C37.2329 120.361 36.9479 119.673 36.9479 118.956L36.9479 105.738Z" stroke="url(#paint10_linear_1_1419)" stroke-opacity="0.1" stroke-width="1.2"/>
</g>
<g filter="url(#filter3_bi_1_1419)">
<path d="M112.352 122.26C111.475 122.26 110.635 121.912 110.015 121.292C109.395 120.672 109.047 119.832 109.047 118.955V107.779L84.4389 95.4934C83.6545 95.1016 83.0579 94.4143 82.7802 93.5826C82.5026 92.751 82.5667 91.8431 82.9585 91.0587C83.3502 90.2744 84.0375 89.6777 84.8692 89.4001C85.7008 89.1225 86.6087 89.1866 87.3931 89.5783L113.829 102.796C114.376 103.069 114.836 103.489 115.159 104.008C115.481 104.527 115.654 105.126 115.656 105.737V118.955C115.656 119.832 115.308 120.672 114.688 121.292C114.069 121.912 113.228 122.26 112.352 122.26Z" fill="#1D1D1D" fill-opacity="0.05"/>
<path d="M112.352 122.26C111.475 122.26 110.635 121.912 110.015 121.292C109.395 120.672 109.047 119.832 109.047 118.955V107.779L84.4389 95.4934C83.6545 95.1016 83.0579 94.4143 82.7802 93.5826C82.5026 92.751 82.5667 91.8431 82.9585 91.0587C83.3502 90.2744 84.0375 89.6777 84.8692 89.4001C85.7008 89.1225 86.6087 89.1866 87.3931 89.5783L113.829 102.796C114.376 103.069 114.836 103.489 115.159 104.008C115.481 104.527 115.654 105.126 115.656 105.737V118.955C115.656 119.832 115.308 120.672 114.688 121.292C114.069 121.912 113.228 122.26 112.352 122.26Z" fill="url(#paint11_linear_1_1419)" fill-opacity="0.2"/>
<path d="M109.647 107.779V107.408L109.315 107.243L84.707 94.9566C84.0649 94.6359 83.5766 94.0734 83.3494 93.3927C83.1221 92.7119 83.1746 91.9688 83.4952 91.3268C83.8159 90.6848 84.3784 90.1965 85.0592 89.9692C85.7398 89.742 86.4828 89.7944 87.1247 90.115C87.1248 90.115 87.1249 90.1151 87.125 90.1151L113.561 103.333L113.561 103.333C114.008 103.557 114.385 103.9 114.649 104.325C114.913 104.75 115.054 105.239 115.056 105.739C115.056 105.739 115.056 105.74 115.056 105.74L115.056 118.955C115.056 119.672 114.771 120.36 114.264 120.868C113.757 121.375 113.069 121.66 112.352 121.66C111.635 121.66 110.947 121.375 110.439 120.868C109.932 120.36 109.647 119.672 109.647 118.955V107.779Z" stroke="url(#paint12_linear_1_1419)" stroke-opacity="0.1" stroke-width="1.2"/>
</g>
</g>
<defs>
<filter id="filter0_bi_1_1419" x="2.43393" y="-24" width="147.134" height="133.943" filterUnits="userSpaceOnUse" color-interpolation-filters="sRGB">
<feFlood flood-opacity="0" result="BackgroundImageFix"/>
<feGaussianBlur in="BackgroundImageFix" stdDeviation="12"/>
<feComposite in2="SourceAlpha" operator="in" result="effect1_backgroundBlur_1_1419"/>
<feBlend mode="normal" in="SourceGraphic" in2="effect1_backgroundBlur_1_1419" result="shape"/>
<feColorMatrix in="SourceAlpha" type="matrix" values="0 0 0 0 0 0 0 0 0 0 0 0 0 0 0 0 0 0 127 0" result="hardAlpha"/>
<feOffset dy="8"/>
<feGaussianBlur stdDeviation="6"/>
<feComposite in2="hardAlpha" operator="arithmetic" k2="-1" k3="1"/>
<feColorMatrix type="matrix" values="0 0 0 0 1 0 0 0 0 1 0 0 0 0 1 0 0 0 0.15 0"/>
<feBlend mode="normal" in2="shape" result="effect2_innerShadow_1_1419"/>
</filter>
<filter id="filter1_bi_1_1419" x="48.6973" y="75.1279" width="54.6089" height="81.0449" filterUnits="userSpaceOnUse" color-interpolation-filters="sRGB">
<feFlood flood-opacity="0" result="BackgroundImageFix"/>
<feGaussianBlur in="BackgroundImageFix" stdDeviation="12"/>
<feComposite in2="SourceAlpha" operator="in" result="effect1_backgroundBlur_1_1419"/>
<feBlend mode="normal" in="SourceGraphic" in2="effect1_backgroundBlur_1_1419" result="shape"/>
<feColorMatrix in="SourceAlpha" type="matrix" values="0 0 0 0 0 0 0 0 0 0 0 0 0 0 0 0 0 0 127 0" result="hardAlpha"/>
<feOffset dy="8"/>
<feGaussianBlur stdDeviation="6"/>
<feComposite in2="hardAlpha" operator="arithmetic" k2="-1" k3="1"/>
<feColorMatrix type="matrix" values="0 0 0 0 1 0 0 0 0 1 0 0 0 0 1 0 0 0 0.15 0"/>
<feBlend mode="normal" in2="shape" result="effect2_innerShadow_1_1419"/>
</filter>
<filter id="filter2_bi_1_1419" x="12.3479" y="65.1978" width="81.0462" height="81.0625" filterUnits="userSpaceOnUse" color-interpolation-filters="sRGB">
<feFlood flood-opacity="0" result="BackgroundImageFix"/>
<feGaussianBlur in="BackgroundImageFix" stdDeviation="12"/>
<feComposite in2="SourceAlpha" operator="in" result="effect1_backgroundBlur_1_1419"/>
<feBlend mode="normal" in="SourceGraphic" in2="effect1_backgroundBlur_1_1419" result="shape"/>
<feColorMatrix in="SourceAlpha" type="matrix" values="0 0 0 0 0 0 0 0 0 0 0 0 0 0 0 0 0 0 127 0" result="hardAlpha"/>
<feOffset dy="8"/>
<feGaussianBlur stdDeviation="6"/>
<feComposite in2="hardAlpha" operator="arithmetic" k2="-1" k3="1"/>
<feColorMatrix type="matrix" values="0 0 0 0 1 0 0 0 0 1 0 0 0 0 1 0 0 0 0.15 0"/>
<feBlend mode="normal" in2="shape" result="effect2_innerShadow_1_1419"/>
</filter>
<filter id="filter3_bi_1_1419" x="58.6101" y="65.23" width="81.0462" height="81.0298" filterUnits="userSpaceOnUse" color-interpolation-filters="sRGB">
<feFlood flood-opacity="0" result="BackgroundImageFix"/>
<feGaussianBlur in="BackgroundImageFix" stdDeviation="12"/>
<feComposite in2="SourceAlpha" operator="in" result="effect1_backgroundBlur_1_1419"/>
<feBlend mode="normal" in="SourceGraphic" in2="effect1_backgroundBlur_1_1419" result="shape"/>
<feColorMatrix in="SourceAlpha" type="matrix" values="0 0 0 0 0 0 0 0 0 0 0 0 0 0 0 0 0 0 127 0" result="hardAlpha"/>
<feOffset dy="8"/>
<feGaussianBlur stdDeviation="6"/>
<feComposite in2="hardAlpha" operator="arithmetic" k2="-1" k3="1"/>
<feColorMatrix type="matrix" values="0 0 0 0 1 0 0 0 0 1 0 0 0 0 1 0 0 0 0.15 0"/>
<feBlend mode="normal" in2="shape" result="effect2_innerShadow_1_1419"/>
</filter>
<linearGradient id="paint0_linear_1_1419" x1="54.7973" y1="35.6813" x2="105.228" y2="42.6855" gradientUnits="userSpaceOnUse">
<stop stop-color="#8AE6CF"/>
<stop offset="1" stop-color="#7C3AE7"/>
</linearGradient>
<linearGradient id="paint1_linear_1_1419" x1="63.8852" y1="84.5875" x2="92.7024" y2="88.5899" gradientUnits="userSpaceOnUse">
<stop stop-color="#8AE6CF"/>
<stop offset="1" stop-color="#7C3AE7"/>
</linearGradient>
<linearGradient id="paint2_linear_1_1419" x1="63.8852" y1="130.851" x2="92.7024" y2="134.853" gradientUnits="userSpaceOnUse">
<stop stop-color="#8AE6CF"/>
<stop offset="1" stop-color="#7C3AE7"/>
</linearGradient>
<linearGradient id="paint3_linear_1_1419" x1="27.5354" y1="120.937" x2="56.3527" y2="124.939" gradientUnits="userSpaceOnUse">
<stop stop-color="#8AE6CF"/>
<stop offset="1" stop-color="#7C3AE7"/>
</linearGradient>
<linearGradient id="paint4_linear_1_1419" x1="100.235" y1="120.937" x2="129.052" y2="124.939" gradientUnits="userSpaceOnUse">
<stop stop-color="#8AE6CF"/>
<stop offset="1" stop-color="#7C3AE7"/>
</linearGradient>
<linearGradient id="paint5_linear_1_1419" x1="30.5645" y1="17.1887" x2="137.958" y2="34.3937" gradientUnits="userSpaceOnUse">
<stop stop-color="#66FECB"/>
<stop offset="1" stop-color="#8940FF"/>
</linearGradient>
<linearGradient id="paint6_linear_1_1419" x1="29.5319" y1="3.90652" x2="125.568" y2="3.90652" gradientUnits="userSpaceOnUse">
<stop stop-color="#C8A6FF"/>
<stop offset="1" stop-color="#69CFB5"/>
</linearGradient>
<linearGradient id="paint7_linear_1_1419" x1="72.9726" y1="105.737" x2="80.3103" y2="105.941" gradientUnits="userSpaceOnUse">
<stop stop-color="#66FECB"/>
<stop offset="1" stop-color="#8940FF"/>
</linearGradient>
<linearGradient id="paint8_linear_1_1419" x1="72.9038" y1="100.63" x2="79.3062" y2="100.63" gradientUnits="userSpaceOnUse">
<stop stop-color="#C8A6FF"/>
<stop offset="1" stop-color="#69CFB5"/>
</linearGradient>
<linearGradient id="paint9_linear_1_1419" x1="37.7248" y1="95.8103" x2="73.7486" y2="100.811" gradientUnits="userSpaceOnUse">
<stop stop-color="#66FECB"/>
<stop offset="1" stop-color="#8940FF"/>
</linearGradient>
<linearGradient id="paint10_linear_1_1419" x1="37.3806" y1="90.7006" x2="69.3941" y2="90.7006" gradientUnits="userSpaceOnUse">
<stop stop-color="#C8A6FF"/>
<stop offset="1" stop-color="#69CFB5"/>
</linearGradient>
<linearGradient id="paint11_linear_1_1419" x1="83.987" y1="95.8359" x2="120.009" y2="100.842" gradientUnits="userSpaceOnUse">
<stop stop-color="#66FECB"/>
<stop offset="1" stop-color="#8940FF"/>
</linearGradient>
<linearGradient id="paint12_linear_1_1419" x1="83.6428" y1="90.7313" x2="115.656" y2="90.7313" gradientUnits="userSpaceOnUse">
<stop stop-color="#C8A6FF"/>
<stop offset="1" stop-color="#69CFB5"/>
</linearGradient>
<clipPath id="clip0_1_1419">
<rect width="152" height="152" fill="white"/>
</clipPath>
</defs>
</svg>
