<svg width="152" height="152" viewBox="0 0 152 152" fill="none" xmlns="http://www.w3.org/2000/svg">
<g clip-path="url(#clip0_1_1406)">
<g filter="url(#filter0_bi_1_1406)">
<path d="M76 76C96.9868 76 114 58.9868 114 38C114 17.0132 96.9868 0 76 0C55.0132 0 38 17.0132 38 38C38 58.9868 55.0132 76 76 76Z" fill="#1D1D1D" fill-opacity="0.05"/>
<path d="M76 76C96.9868 76 114 58.9868 114 38C114 17.0132 96.9868 0 76 0C55.0132 0 38 17.0132 38 38C38 58.9868 55.0132 76 76 76Z" fill="url(#paint0_linear_1_1406)" fill-opacity="0.2"/>
<path d="M113.4 38C113.4 58.6554 96.6554 75.4 76 75.4C55.3446 75.4 38.6 58.6554 38.6 38C38.6 17.3446 55.3446 0.6 76 0.6C96.6554 0.6 113.4 17.3446 113.4 38Z" stroke="url(#paint1_linear_1_1406)" stroke-opacity="0.1" stroke-width="1.2"/>
</g>
<g filter="url(#filter1_i_1_1406)">
<path d="M75.9979 67.233C92.1416 67.233 105.229 54.146 105.229 38.0023C105.229 21.8585 92.1416 8.77148 75.9979 8.77148C59.8541 8.77148 46.7671 21.8585 46.7671 38.0023C46.7671 54.146 59.8541 67.233 75.9979 67.233Z" fill="#1D1D1D" fill-opacity="0.05"/>
<path d="M75.9979 67.233C92.1416 67.233 105.229 54.146 105.229 38.0023C105.229 21.8585 92.1416 8.77148 75.9979 8.77148C59.8541 8.77148 46.7671 21.8585 46.7671 38.0023C46.7671 54.146 59.8541 67.233 75.9979 67.233Z" fill="url(#paint2_linear_1_1406)" fill-opacity="0.2"/>
</g>
<g filter="url(#filter2_i_1_1406)">
<path d="M75.9992 54.8881C75.3594 54.888 74.7458 54.6337 74.2934 54.1812L59.817 39.7048C59.3647 39.2523 59.1106 38.6388 59.1106 37.999C59.1106 37.3592 59.3647 36.7456 59.817 36.2932L74.2934 21.8168C74.7459 21.3644 75.3595 21.1104 75.9992 21.1104C76.639 21.1104 77.2526 21.3644 77.705 21.8168L92.1814 36.2932C92.6338 36.7456 92.8879 37.3592 92.8879 37.999C92.8879 38.6388 92.6338 39.2523 92.1814 39.7048L77.705 54.1812C77.2527 54.6337 76.6391 54.888 75.9992 54.8881Z" fill="url(#paint3_linear_1_1406)"/>
</g>
<path d="M52.357 137.122H99.6506L100.4 118.221H51.608L52.357 137.122Z" fill="url(#paint4_linear_1_1406)"/>
<g filter="url(#filter3_bi_1_1406)">
<path d="M76.0057 115.408C75.2591 115.408 74.5432 115.112 74.0153 114.584C73.4874 114.056 73.1908 113.34 73.1908 112.594C73.1836 105.554 75.2089 98.6627 79.0234 92.7466C82.8379 86.8305 88.2794 82.1415 94.6942 79.243C101.109 76.3444 108.224 75.3596 115.185 76.4068C122.146 77.454 128.657 80.4887 133.935 85.1463C134.494 85.6398 134.835 86.3355 134.882 87.0802C134.929 87.825 134.678 88.558 134.185 89.118C134.107 89.2063 134.023 89.29 133.935 89.3685C127.601 94.97 119.516 98.195 111.066 98.4913C102.615 98.7876 94.3248 96.1367 87.614 90.9926C81.971 96.7661 78.8143 104.52 78.8205 112.594C78.8205 113.34 78.5239 114.056 77.996 114.584C77.4681 115.112 76.7522 115.408 76.0057 115.408Z" fill="#1D1D1D" fill-opacity="0.05"/>
<path d="M76.0057 115.408C75.2591 115.408 74.5432 115.112 74.0153 114.584C73.4874 114.056 73.1908 113.34 73.1908 112.594C73.1836 105.554 75.2089 98.6627 79.0234 92.7466C82.8379 86.8305 88.2794 82.1415 94.6942 79.243C101.109 76.3444 108.224 75.3596 115.185 76.4068C122.146 77.454 128.657 80.4887 133.935 85.1463C134.494 85.6398 134.835 86.3355 134.882 87.0802C134.929 87.825 134.678 88.558 134.185 89.118C134.107 89.2063 134.023 89.29 133.935 89.3685C127.601 94.97 119.516 98.195 111.066 98.4913C102.615 98.7876 94.3248 96.1367 87.614 90.9926C81.971 96.7661 78.8143 104.52 78.8205 112.594C78.8205 113.34 78.5239 114.056 77.996 114.584C77.4681 115.112 76.7522 115.408 76.0057 115.408Z" fill="url(#paint5_linear_1_1406)" fill-opacity="0.2"/>
<path d="M73.7908 112.593L73.7908 112.594C73.7908 113.181 74.0242 113.744 74.4395 114.16C74.8549 114.575 75.4182 114.808 76.0057 114.808C76.5931 114.808 77.1564 114.575 77.5718 114.16C77.987 113.744 78.2203 113.181 78.2205 112.594C78.2205 112.594 78.2205 112.594 78.2205 112.594H78.8205C78.8143 104.52 81.971 96.7661 87.614 90.9926L73.7908 112.593ZM73.7908 112.593C73.7837 105.669 75.7758 98.8907 79.5277 93.0717C83.2796 87.2527 88.6318 82.6407 94.9413 79.7897C101.251 76.9388 108.249 75.9701 115.096 77.0001C121.942 78.0301 128.346 81.015 133.538 85.5961L133.538 85.5963C133.978 85.9846 134.246 86.532 134.283 87.118C134.32 87.7036 134.123 88.2798 133.736 88.7203C133.673 88.7904 133.607 88.8567 133.537 88.919L73.7908 112.593Z" stroke="url(#paint6_linear_1_1406)" stroke-opacity="0.1" stroke-width="1.2"/>
</g>
<g filter="url(#filter4_bi_1_1406)">
<path d="M76.0015 115.409C75.2549 115.409 74.539 115.112 74.0111 114.585C73.4832 114.057 73.1866 113.341 73.1866 112.594C73.191 104.523 70.0345 96.7712 64.3932 90.999C57.6824 96.1431 49.3918 98.794 40.9415 98.4977C32.4911 98.2014 24.4066 94.9763 18.0726 89.3748C17.5129 88.8812 17.172 88.1856 17.1251 87.4408C17.0781 86.6961 17.3288 85.9631 17.822 85.4031C17.9006 85.3148 17.9842 85.2311 18.0726 85.1526C23.3502 80.4953 29.8602 77.4607 36.8206 76.4134C43.781 75.366 50.8958 76.3503 57.3103 79.2482C63.7249 82.146 69.1664 86.8341 72.9814 92.7494C76.7963 98.6646 78.8224 105.555 78.8163 112.594C78.8163 113.341 78.5197 114.057 77.9918 114.585C77.464 115.112 76.748 115.409 76.0015 115.409Z" fill="#1D1D1D" fill-opacity="0.05"/>
<path d="M76.0015 115.409C75.2549 115.409 74.539 115.112 74.0111 114.585C73.4832 114.057 73.1866 113.341 73.1866 112.594C73.191 104.523 70.0345 96.7712 64.3932 90.999C57.6824 96.1431 49.3918 98.794 40.9415 98.4977C32.4911 98.2014 24.4066 94.9763 18.0726 89.3748C17.5129 88.8812 17.172 88.1856 17.1251 87.4408C17.0781 86.6961 17.3288 85.9631 17.822 85.4031C17.9006 85.3148 17.9842 85.2311 18.0726 85.1526C23.3502 80.4953 29.8602 77.4607 36.8206 76.4134C43.781 75.366 50.8958 76.3503 57.3103 79.2482C63.7249 82.146 69.1664 86.8341 72.9814 92.7494C76.7963 98.6646 78.8224 105.555 78.8163 112.594C78.8163 113.341 78.5197 114.057 77.9918 114.585C77.464 115.112 76.748 115.409 76.0015 115.409Z" fill="url(#paint7_linear_1_1406)" fill-opacity="0.2"/>
<path d="M64.4504 90.1991L64.8223 90.5796C70.5732 96.464 73.7911 104.367 73.7866 112.595M64.4504 90.1991L73.1866 112.594M64.4504 90.1991L64.0281 90.5228C57.4278 95.5822 49.2738 98.1895 40.9625 97.8981C32.6512 97.6066 24.6998 94.4347 18.47 88.9254L18.4694 88.9248C18.029 88.5364 17.7608 87.9891 17.7239 87.4031C17.6869 86.8175 17.8839 86.2412 18.2714 85.8007M64.4504 90.1991L18.0726 89.3748M73.7866 112.595L73.1866 112.594M73.7866 112.595C73.7866 112.594 73.7866 112.594 73.7866 112.594H73.1866M73.7866 112.595C73.7867 113.182 74.0201 113.745 74.4353 114.16C74.8507 114.576 75.414 114.809 76.0015 114.809C76.5889 114.809 77.1522 114.576 77.5676 114.16C77.9829 113.745 78.2163 113.182 78.2163 112.594V112.594C78.2223 105.67 76.2295 98.8927 72.4771 93.0746C68.7248 87.2564 63.3726 82.6452 57.0633 79.7949C50.754 76.9447 43.7561 75.9765 36.9099 77.0067C30.0641 78.0368 23.6613 81.0213 18.4704 85.6017M73.1866 112.594C73.1866 113.341 73.4832 114.057 74.0111 114.585C74.539 115.112 75.2549 115.409 76.0015 115.409C76.748 115.409 77.464 115.112 77.9918 114.585C78.5197 114.057 78.8163 113.341 78.8163 112.594C78.8224 105.555 76.7963 98.6646 72.9814 92.7494C69.1664 86.8341 63.7249 82.146 57.3103 79.2482C50.8958 76.3503 43.781 75.366 36.8206 76.4134C29.8602 77.4607 23.3502 80.4953 18.0726 85.1526M18.4704 85.6017C18.4706 85.6015 18.4709 85.6013 18.4711 85.6011L18.0726 85.1526M18.4704 85.6017C18.4701 85.602 18.4698 85.6022 18.4696 85.6025L18.0726 85.1526M18.4704 85.6017C18.4002 85.6641 18.3338 85.7306 18.2714 85.8007M18.0726 85.1526C17.9842 85.2311 17.9006 85.3148 17.822 85.4031M17.822 85.4031L18.2723 85.7997C18.272 85.8 18.2717 85.8004 18.2714 85.8007M17.822 85.4031C17.3288 85.9631 17.0781 86.6961 17.1251 87.4408C17.172 88.1856 17.5129 88.8812 18.0726 89.3748M17.822 85.4031L18.2706 85.8016C18.2709 85.8013 18.2711 85.801 18.2714 85.8007M18.0726 89.3748L18.0726 89.3748L18.0726 89.3748Z" stroke="url(#paint8_linear_1_1406)" stroke-opacity="0.1" stroke-width="1.2"/>
</g>
<g filter="url(#filter5_bi_1_1406)">
<path d="M98.5226 152H53.4856C52.8193 152 52.1747 151.763 51.6665 151.332C51.1583 150.901 50.8194 150.304 50.7102 149.647L45.0805 115.869C45.0135 115.466 45.0351 115.053 45.1437 114.659C45.2523 114.266 45.4453 113.9 45.7094 113.588C45.9735 113.276 46.3023 113.026 46.673 112.854C47.0437 112.682 47.4474 112.593 47.8559 112.593H104.152C104.561 112.593 104.965 112.682 105.335 112.854C105.706 113.026 106.035 113.276 106.299 113.588C106.563 113.9 106.756 114.266 106.865 114.659C106.973 115.053 106.995 115.466 106.928 115.869L101.298 149.647C101.189 150.304 100.85 150.901 100.342 151.332C99.8335 151.763 99.1889 152 98.5226 152Z" fill="#1D1D1D" fill-opacity="0.05"/>
<path d="M98.5226 152H53.4856C52.8193 152 52.1747 151.763 51.6665 151.332C51.1583 150.901 50.8194 150.304 50.7102 149.647L45.0805 115.869C45.0135 115.466 45.0351 115.053 45.1437 114.659C45.2523 114.266 45.4453 113.9 45.7094 113.588C45.9735 113.276 46.3023 113.026 46.673 112.854C47.0437 112.682 47.4474 112.593 47.8559 112.593H104.152C104.561 112.593 104.965 112.682 105.335 112.854C105.706 113.026 106.035 113.276 106.299 113.588C106.563 113.9 106.756 114.266 106.865 114.659C106.973 115.053 106.995 115.466 106.928 115.869L101.298 149.647C101.189 150.304 100.85 150.901 100.342 151.332C99.8335 151.763 99.1889 152 98.5226 152Z" fill="url(#paint9_linear_1_1406)" fill-opacity="0.2"/>
<path d="M51.302 149.548L51.302 149.549C51.388 150.066 51.6547 150.536 52.0545 150.875C52.4543 151.214 52.9614 151.4 53.4856 151.4L51.302 149.548ZM51.302 149.548L45.6724 115.771C45.6724 115.771 45.6724 115.771 45.6724 115.771C45.6197 115.453 45.6367 115.129 45.7221 114.819C45.8076 114.509 45.9595 114.221 46.1673 113.976C46.3751 113.731 46.6338 113.534 46.9254 113.398C47.217 113.263 47.5345 113.193 47.8559 113.193C47.856 113.193 47.8561 113.193 47.8562 113.193H104.152C104.152 113.193 104.152 113.193 104.152 113.193C104.474 113.193 104.791 113.263 105.083 113.398C105.374 113.534 105.633 113.731 105.841 113.976L106.297 113.59L105.841 113.976C106.049 114.221 106.201 114.509 106.286 114.819C106.372 115.129 106.389 115.454 106.336 115.771L100.706 149.548L100.706 149.549M51.302 149.548L100.706 149.549M100.706 149.549C100.62 150.066 100.354 150.536 99.9537 150.875C99.5538 151.214 99.0468 151.4 98.5226 151.4C98.5225 151.4 98.5224 151.4 98.5223 151.4H53.4859L100.706 149.549Z" stroke="url(#paint10_linear_1_1406)" stroke-opacity="0.1" stroke-width="1.2"/>
</g>
</g>
<defs>
<filter id="filter0_bi_1_1406" x="14" y="-24" width="124" height="124" filterUnits="userSpaceOnUse" color-interpolation-filters="sRGB">
<feFlood flood-opacity="0" result="BackgroundImageFix"/>
<feGaussianBlur in="BackgroundImageFix" stdDeviation="12"/>
<feComposite in2="SourceAlpha" operator="in" result="effect1_backgroundBlur_1_1406"/>
<feBlend mode="normal" in="SourceGraphic" in2="effect1_backgroundBlur_1_1406" result="shape"/>
<feColorMatrix in="SourceAlpha" type="matrix" values="0 0 0 0 0 0 0 0 0 0 0 0 0 0 0 0 0 0 127 0" result="hardAlpha"/>
<feOffset dy="8"/>
<feGaussianBlur stdDeviation="6"/>
<feComposite in2="hardAlpha" operator="arithmetic" k2="-1" k3="1"/>
<feColorMatrix type="matrix" values="0 0 0 0 1 0 0 0 0 1 0 0 0 0 1 0 0 0 0.4 0"/>
<feBlend mode="normal" in2="shape" result="effect2_innerShadow_1_1406"/>
</filter>
<filter id="filter1_i_1_1406" x="46.7671" y="8.77148" width="58.4615" height="66.4614" filterUnits="userSpaceOnUse" color-interpolation-filters="sRGB">
<feFlood flood-opacity="0" result="BackgroundImageFix"/>
<feBlend mode="normal" in="SourceGraphic" in2="BackgroundImageFix" result="shape"/>
<feColorMatrix in="SourceAlpha" type="matrix" values="0 0 0 0 0 0 0 0 0 0 0 0 0 0 0 0 0 0 127 0" result="hardAlpha"/>
<feOffset dy="8"/>
<feGaussianBlur stdDeviation="4"/>
<feComposite in2="hardAlpha" operator="arithmetic" k2="-1" k3="1"/>
<feColorMatrix type="matrix" values="0 0 0 0 1 0 0 0 0 1 0 0 0 0 1 0 0 0 0.1 0"/>
<feBlend mode="normal" in2="shape" result="effect1_innerShadow_1_1406"/>
</filter>
<filter id="filter2_i_1_1406" x="59.1106" y="21.1104" width="33.7773" height="41.7778" filterUnits="userSpaceOnUse" color-interpolation-filters="sRGB">
<feFlood flood-opacity="0" result="BackgroundImageFix"/>
<feBlend mode="normal" in="SourceGraphic" in2="BackgroundImageFix" result="shape"/>
<feColorMatrix in="SourceAlpha" type="matrix" values="0 0 0 0 0 0 0 0 0 0 0 0 0 0 0 0 0 0 127 0" result="hardAlpha"/>
<feOffset dy="8"/>
<feGaussianBlur stdDeviation="4"/>
<feComposite in2="hardAlpha" operator="arithmetic" k2="-1" k3="1"/>
<feColorMatrix type="matrix" values="0 0 0 0 1 0 0 0 0 1 0 0 0 0 1 0 0 0 0.1 0"/>
<feBlend mode="normal" in2="shape" result="effect1_innerShadow_1_1406"/>
</filter>
<filter id="filter3_bi_1_1406" x="49.1908" y="52" width="109.697" height="87.4082" filterUnits="userSpaceOnUse" color-interpolation-filters="sRGB">
<feFlood flood-opacity="0" result="BackgroundImageFix"/>
<feGaussianBlur in="BackgroundImageFix" stdDeviation="12"/>
<feComposite in2="SourceAlpha" operator="in" result="effect1_backgroundBlur_1_1406"/>
<feBlend mode="normal" in="SourceGraphic" in2="effect1_backgroundBlur_1_1406" result="shape"/>
<feColorMatrix in="SourceAlpha" type="matrix" values="0 0 0 0 0 0 0 0 0 0 0 0 0 0 0 0 0 0 127 0" result="hardAlpha"/>
<feOffset dy="8"/>
<feGaussianBlur stdDeviation="6"/>
<feComposite in2="hardAlpha" operator="arithmetic" k2="-1" k3="1"/>
<feColorMatrix type="matrix" values="0 0 0 0 1 0 0 0 0 1 0 0 0 0 1 0 0 0 0.15 0"/>
<feBlend mode="normal" in2="shape" result="effect2_innerShadow_1_1406"/>
</filter>
<filter id="filter4_bi_1_1406" x="-6.88052" y="52.0063" width="109.697" height="87.4028" filterUnits="userSpaceOnUse" color-interpolation-filters="sRGB">
<feFlood flood-opacity="0" result="BackgroundImageFix"/>
<feGaussianBlur in="BackgroundImageFix" stdDeviation="12"/>
<feComposite in2="SourceAlpha" operator="in" result="effect1_backgroundBlur_1_1406"/>
<feBlend mode="normal" in="SourceGraphic" in2="effect1_backgroundBlur_1_1406" result="shape"/>
<feColorMatrix in="SourceAlpha" type="matrix" values="0 0 0 0 0 0 0 0 0 0 0 0 0 0 0 0 0 0 127 0" result="hardAlpha"/>
<feOffset dy="8"/>
<feGaussianBlur stdDeviation="6"/>
<feComposite in2="hardAlpha" operator="arithmetic" k2="-1" k3="1"/>
<feColorMatrix type="matrix" values="0 0 0 0 1 0 0 0 0 1 0 0 0 0 1 0 0 0 0.15 0"/>
<feBlend mode="normal" in2="shape" result="effect2_innerShadow_1_1406"/>
</filter>
<filter id="filter5_bi_1_1406" x="21.0424" y="88.5928" width="109.923" height="87.4072" filterUnits="userSpaceOnUse" color-interpolation-filters="sRGB">
<feFlood flood-opacity="0" result="BackgroundImageFix"/>
<feGaussianBlur in="BackgroundImageFix" stdDeviation="12"/>
<feComposite in2="SourceAlpha" operator="in" result="effect1_backgroundBlur_1_1406"/>
<feBlend mode="normal" in="SourceGraphic" in2="effect1_backgroundBlur_1_1406" result="shape"/>
<feColorMatrix in="SourceAlpha" type="matrix" values="0 0 0 0 0 0 0 0 0 0 0 0 0 0 0 0 0 0 127 0" result="hardAlpha"/>
<feOffset dy="8"/>
<feGaussianBlur stdDeviation="6"/>
<feComposite in2="hardAlpha" operator="arithmetic" k2="-1" k3="1"/>
<feColorMatrix type="matrix" values="0 0 0 0 1 0 0 0 0 1 0 0 0 0 1 0 0 0 0.15 0"/>
<feBlend mode="normal" in2="shape" result="effect2_innerShadow_1_1406"/>
</filter>
<linearGradient id="paint0_linear_1_1406" x1="41.1667" y1="15.2" x2="124.013" y2="26.7064" gradientUnits="userSpaceOnUse">
<stop stop-color="#66FECB"/>
<stop offset="1" stop-color="#8940FF"/>
</linearGradient>
<linearGradient id="paint1_linear_1_1406" x1="40.375" y1="3.45455" x2="114" y2="3.45455" gradientUnits="userSpaceOnUse">
<stop stop-color="#C8A6FF"/>
<stop offset="1" stop-color="#69CFB5"/>
</linearGradient>
<linearGradient id="paint2_linear_1_1406" x1="49.203" y1="20.4638" x2="112.931" y2="29.3149" gradientUnits="userSpaceOnUse">
<stop stop-color="#66FECB"/>
<stop offset="1" stop-color="#8940FF"/>
</linearGradient>
<linearGradient id="paint3_linear_1_1406" x1="60.518" y1="27.8659" x2="97.338" y2="32.9797" gradientUnits="userSpaceOnUse">
<stop stop-color="#8AE6CF"/>
<stop offset="1" stop-color="#7C3AE7"/>
</linearGradient>
<linearGradient id="paint4_linear_1_1406" x1="53.641" y1="122.001" x2="101.679" y2="139.224" gradientUnits="userSpaceOnUse">
<stop stop-color="#8AE6CF"/>
<stop offset="1" stop-color="#7C3AE7"/>
</linearGradient>
<linearGradient id="paint5_linear_1_1406" x1="75.7615" y1="83.8817" x2="141.219" y2="98.1148" gradientUnits="userSpaceOnUse">
<stop stop-color="#66FECB"/>
<stop offset="1" stop-color="#8940FF"/>
</linearGradient>
<linearGradient id="paint6_linear_1_1406" x1="75.1188" y1="77.7913" x2="134.888" y2="77.7913" gradientUnits="userSpaceOnUse">
<stop stop-color="#C8A6FF"/>
<stop offset="1" stop-color="#69CFB5"/>
</linearGradient>
<linearGradient id="paint7_linear_1_1406" x1="19.6902" y1="83.8869" x2="85.1465" y2="98.1218" gradientUnits="userSpaceOnUse">
<stop stop-color="#66FECB"/>
<stop offset="1" stop-color="#8940FF"/>
</linearGradient>
<linearGradient id="paint8_linear_1_1406" x1="19.0475" y1="77.7974" x2="78.8163" y2="77.7974" gradientUnits="userSpaceOnUse">
<stop stop-color="#C8A6FF"/>
<stop offset="1" stop-color="#69CFB5"/>
</linearGradient>
<linearGradient id="paint9_linear_1_1406" x1="47.6226" y1="120.474" x2="113.298" y2="134.808" gradientUnits="userSpaceOnUse">
<stop stop-color="#66FECB"/>
<stop offset="1" stop-color="#8940FF"/>
</linearGradient>
<linearGradient id="paint10_linear_1_1406" x1="46.9775" y1="114.384" x2="106.966" y2="114.384" gradientUnits="userSpaceOnUse">
<stop stop-color="#C8A6FF"/>
<stop offset="1" stop-color="#69CFB5"/>
</linearGradient>
<clipPath id="clip0_1_1406">
<rect width="152" height="152" fill="white"/>
</clipPath>
</defs>
</svg>
