<svg width="120" height="127" viewBox="0 0 120 127" fill="none" xmlns="http://www.w3.org/2000/svg">
<mask id="mask0_1_1343" style="mask-type:luminance" maskUnits="userSpaceOnUse" x="0" y="0" width="120" height="127">
<path d="M120 0.599121H0V126.444H120V0.599121Z" fill="white"/>
</mask>
<g mask="url(#mask0_1_1343)">
<path fill-rule="evenodd" clip-rule="evenodd" d="M29.2479 71.4074C31.5946 71.8698 34.0221 72.113 36.5072 72.113V72.1046C56.0005 72.1046 71.9751 57.1558 72.9654 38.4184C91.9388 40.8859 106.623 56.7498 106.623 75.8798C106.623 96.7143 89.2059 113.666 67.7999 113.666C46.3942 113.666 28.9775 96.7224 28.9775 75.8798C28.9775 74.3667 29.0693 72.8745 29.2479 71.4074ZM17.1661 66.7051C6.86387 60.4157 0 49.2607 0 36.5717C0 16.9712 16.3775 1.03906 36.5072 1.03906C52.8044 1.03906 66.6419 11.4876 71.3206 25.8633C98.0795 27.6303 119.299 49.387 119.299 75.8798C119.299 103.525 96.1942 126.004 67.7999 126.004C39.4058 126.004 16.3014 103.516 16.3014 75.8798C16.3014 72.7474 16.5983 69.6806 17.1661 66.7051ZM21.2747 54.3973C16.0236 50.1391 12.676 43.7292 12.676 36.5717C12.676 23.7816 23.3662 13.3768 36.5072 13.3768C46.0026 13.3768 54.2188 18.8097 58.0464 26.6498C41.7782 29.6989 28.2086 40.2267 21.2747 54.3973ZM32.8208 59.4897C38.0445 48.966 48.1345 41.1433 60.2285 38.8069C59.0694 50.552 48.8733 59.7665 36.5072 59.7665C35.2536 59.7665 34.0227 59.6719 32.8208 59.4897Z" fill="url(#paint0_linear_1_1343)"/>
<path fill-rule="evenodd" clip-rule="evenodd" d="M28.7325 1.86133C12.3249 5.33873 0 19.5868 0 36.5829C0 49.266 6.87045 60.4194 17.1802 66.7035C18.0084 62.3851 19.3943 58.2563 21.2789 54.3988C16.031 50.1383 12.6845 43.7307 12.6845 36.5749L12.676 36.5829C12.676 26.4414 19.3974 17.7994 28.7325 14.6552V1.86133Z" fill="url(#paint1_linear_1_1343)"/>
<path d="M60.2429 38.7806C59.0855 50.5263 48.8856 59.7386 36.5221 59.7386C35.2629 59.7386 34.0291 59.6396 32.8292 59.4587C31.0038 63.1354 29.7782 67.1496 29.2628 71.3689C31.6121 71.8296 34.0376 72.0761 36.5221 72.0761C56.0092 72.0761 71.981 57.1393 72.9784 38.4022C71.2882 38.1805 69.5643 38.0566 67.8065 38.0566C65.2208 38.0566 62.6855 38.3118 60.2429 38.7806Z" fill="url(#paint2_linear_1_1343)"/>
<path d="M60.0925 38.9331C60.1684 38.1927 60.2023 37.4529 60.2023 36.696C60.2023 33.151 59.3826 29.7951 57.9123 26.7847C41.6445 29.8279 28.0728 40.348 21.1348 54.5202C24.3714 57.1438 28.3349 58.9534 32.6787 59.6112C37.9007 49.0914 47.9996 41.2692 60.0925 38.9331Z" fill="url(#paint3_linear_1_1343)"/>
<mask id="mask1_1_1343" style="mask-type:luminance" maskUnits="userSpaceOnUse" x="70" y="25" width="50" height="42">
<path d="M119.155 25.686H70.9863V66.8119H119.155V25.686Z" fill="white"/>
</mask>
<g mask="url(#mask1_1_1343)">
<path fill-rule="evenodd" clip-rule="evenodd" d="M70.9863 125.707V113.334C90.8313 111.677 106.462 95.4238 106.462 75.6867C106.462 56.5551 91.7837 40.7053 72.8111 38.2379C72.8451 37.6207 72.8619 37.0039 72.8619 36.3787C72.8619 32.6527 72.2704 29.0584 71.172 25.686C97.9272 27.4627 119.138 48.0504 119.138 75.6867C119.138 102.23 97.8277 124.022 70.9863 125.707Z" fill="url(#paint4_linear_1_1343)"/>
</g>
</g>
<defs>
<linearGradient id="paint0_linear_1_1343" x1="12.676" y1="8.03046" x2="95.563" y2="118.361" gradientUnits="userSpaceOnUse">
<stop stop-color="#00D9FF"/>
<stop offset="1" stop-color="#E14AFF"/>
</linearGradient>
<linearGradient id="paint1_linear_1_1343" x1="12.676" y1="10.5093" x2="34.6096" y2="67.1117" gradientUnits="userSpaceOnUse">
<stop offset="0.325" stop-color="#004096" stop-opacity="0"/>
<stop offset="1" stop-color="#004096"/>
</linearGradient>
<linearGradient id="paint2_linear_1_1343" x1="63.8033" y1="56.4938" x2="31.4094" y2="65.8288" gradientUnits="userSpaceOnUse">
<stop stop-color="#004096" stop-opacity="0"/>
<stop offset="0.685" stop-color="#004096" stop-opacity="0.5"/>
</linearGradient>
<linearGradient id="paint3_linear_1_1343" x1="45.5559" y1="38.58" x2="59.9847" y2="29.5361" gradientUnits="userSpaceOnUse">
<stop stop-color="#004096" stop-opacity="0"/>
<stop offset="1" stop-color="#004096" stop-opacity="0.5"/>
</linearGradient>
<linearGradient id="paint4_linear_1_1343" x1="96.9908" y1="42.1756" x2="72.9609" y2="31.3986" gradientUnits="userSpaceOnUse">
<stop stop-color="#004096" stop-opacity="0"/>
<stop offset="1" stop-color="#004096" stop-opacity="0.5"/>
</linearGradient>
</defs>
</svg>
